<?xml version="1.0" encoding="UTF-8"?>
<svg id="_레이어_1" data-name="레이어 1" xmlns="http://www.w3.org/2000/svg" version="1.1" viewBox="0 0 164 60">
  <defs>
    <style>
      .cls-1 {
        fill: #efeeeb;
        stroke-width: 0px;
      }
    </style>
  </defs>
  <path class="cls-1" d="M2.2,35.61c0-5.04,2.46-8.94,6.12-9.54l.12.12c-1.08,1.68-1.8,4.2-1.8,7.02,0,5.94,3.42,9.84,8.76,9.84,2.04,0,4.02-.6,5.28-1.44l.12.12c-1.38,2.64-5.16,4.5-8.7,4.5-5.94,0-9.9-4.2-9.9-10.62ZM11.86,22.47c-1.8,0-3.3.42-4.5,1.02l-.06-.12c1.98-2.16,5.04-3.42,8.28-3.42s5.76,1.44,5.76,3.42c0,1.26-1.14,2.34-2.58,2.76l-.18-.06c-1.02-2.1-3.54-3.6-6.72-3.6Z"/>
  <path class="cls-1" d="M23.56,35.97c0-5.1,2.7-9.36,6.42-9.96l.06.12c-1.38,1.8-2.04,4.26-2.04,6.96,0,6.3,3.36,10.44,8.7,10.44,1.44,0,3-.3,4.14-.9l.06.12c-1.56,2.04-4.44,3.48-7.68,3.48-5.88,0-9.66-4.2-9.66-10.26ZM41.98,33.09c0-6.3-3.36-10.44-8.7-10.44-1.5,0-3,.3-4.14.9l-.06-.12c1.56-2.04,4.44-3.48,7.68-3.48,5.88,0,9.66,4.2,9.66,10.26,0,5.1-2.7,9.36-6.42,9.96l-.06-.12c1.38-1.8,2.04-4.26,2.04-6.96Z"/>
  <path class="cls-1" d="M50.98,45.63v-.24c2.04-.6,3.06-1.62,3.06-4.38v-13.62c0-2.46-.24-4.2-1.74-4.44-.72-.18-1.68-.12-2.7,0v-.24c2.82-1.74,6.3-2.76,7.92-2.76.42,0,.72.36.72,2.76,0,2.04-.12,4.2-.48,6.72.84-.66,1.74-1.14,2.76-1.5l.12.12c-1.26,2.58-2.16,4.56-2.16,9.24v3.72c0,2.76,1.38,3.9,3.72,4.38v.24c-2.22.18-4.08.18-5.88.18s-3.36,0-5.34-.18ZM67.3,45.63v-.24c2.04-.6,3.06-1.62,3.06-4.38v-11.58c0-4.14-1.62-5.88-4.74-5.88-1.86,0-3.3.6-5.28,1.92l-.12-.06c1.86-2.76,4.98-5.46,8.64-5.46s5.94,2.7,5.94,7.44v13.62c0,2.76,1.38,3.9,3.72,4.38v.24c-2.22.18-4.08.18-5.88.18s-3.36,0-5.34-.18Z"/>
  <path class="cls-1" d="M85.18,38.01v-14.88h-3.66v-.66c1.98-1.08,3.42-2.34,4.56-3.78,1.56-1.74,2.4-2.88,3-4.92h.54v6.78h5.7c1.02,0,1.68,0,2.46-.06l.06.12c-.72,1.74-1.8,2.52-3.78,2.52h-4.44v13.62c0,4.44,1.56,6.36,4.98,6.36,1.38,0,2.82-.36,3.78-.9l.06.12c-1.5,2.46-4.26,3.9-7.26,3.9-4.02,0-6-2.7-6-8.22Z"/>
  <path class="cls-1" d="M100.06,35.61c0-5.04,2.46-8.94,6.12-9.54l.06.12c-1.08,1.62-1.74,4.2-1.74,6.84,0,6.18,3.42,10.02,8.94,10.02,2.46,0,5.1-.72,6.36-1.68l.12.12c-1.32,2.82-5.22,4.74-9.36,4.74-6.48,0-10.5-4.14-10.5-10.62ZM108.94,30.99v-.36c3.72-.36,6.06-.84,7.38-1.2-.06-4.5-2.34-6.9-6.6-6.9-1.44,0-3.18.36-4.56.96l-.06-.12c1.86-2.1,4.86-3.42,7.8-3.42,4.68,0,7.68,3.48,7.68,8.82,0,.42,0,.96-.12,2.22-1.86.12-3.36.12-5.1.12s-3.66,0-6.42-.12Z"/>
  <path class="cls-1" d="M123.58,35.61c0-5.04,2.46-8.94,6.12-9.54l.12.12c-1.08,1.68-1.8,4.2-1.8,7.02,0,5.94,3.42,9.84,8.76,9.84,2.04,0,4.02-.6,5.28-1.44l.12.12c-1.38,2.64-5.16,4.5-8.7,4.5-5.94,0-9.9-4.2-9.9-10.62ZM133.24,22.47c-1.8,0-3.3.42-4.5,1.02l-.06-.12c1.98-2.16,5.04-3.42,8.28-3.42s5.76,1.44,5.76,3.42c0,1.26-1.14,2.34-2.58,2.76l-.18-.06c-1.02-2.1-3.54-3.6-6.72-3.6Z"/>
  <path class="cls-1" d="M148.54,38.01v-14.88h-3.66v-.66c1.98-1.08,3.42-2.34,4.56-3.78,1.56-1.74,2.4-2.88,3-4.92h.54v6.78h5.7c1.02,0,1.68,0,2.46-.06l.06.12c-.72,1.74-1.8,2.52-3.78,2.52h-4.44v13.62c0,4.44,1.56,6.36,4.98,6.36,1.38,0,2.82-.36,3.78-.9l.06.12c-1.5,2.46-4.26,3.9-7.26,3.9-4.02,0-6-2.7-6-8.22Z"/>
</svg>