<?xml version="1.0" encoding="utf-8"?>
<!-- Generator: Adobe Illustrator 28.3.0, SVG Export Plug-In . SVG Version: 6.00 Build 0)  -->
<svg version="1.1" id="_레이어_1" xmlns="http://www.w3.org/2000/svg" xmlns:xlink="http://www.w3.org/1999/xlink" x="0px"
	 y="0px" viewBox="0 0 86.6 39.5" style="enable-background:new 0 0 86.6 39.5;" xml:space="preserve">
<style type="text/css">
	.st0{fill:none;}
</style>
<path d="M1.5,38.8v-0.2c2-0.6,3.1-1.6,3.1-4.4v-15c0-1.7-0.4-3-2.2-3.3c-0.7-0.1-1.6,0.1-2.3,0.2v-0.2c1.7-1.1,5.8-2.8,8.1-2.8
	C8.9,13.2,9,14.4,9,19v15.2c0,2.8,1.4,3.9,3.7,4.4v0.2C10.5,39,8.7,39,6.9,39S3.5,39,1.5,38.8z M3.3,5c0-1.7,1.3-3,3.1-3
	s3.1,1.3,3.1,3S8.1,7.9,6.3,7.9S3.3,6.7,3.3,5z"/>
<path d="M17.1,38.8v-0.2c2-0.6,3.1-1.6,3.1-4.4V20.6c0-2.5-0.2-4.2-1.7-4.4c-0.7-0.2-1.7-0.1-2.7,0v-0.2c2.8-1.7,6.3-2.8,7.9-2.8
	c0.4,0,0.7,0.4,0.7,2.8c0,2-0.1,4.2-0.5,6.7c0.8-0.7,1.7-1.1,2.8-1.5l0.1,0.1c-1.3,2.6-2.2,4.6-2.2,9.2v3.7c0,2.8,1.4,3.9,3.7,4.4
	v0.2C26.1,39,24.2,39,22.4,39S19.1,39,17.1,38.8z M33.4,38.8v-0.2c2-0.6,3.1-1.6,3.1-4.4V22.6c0-4.1-1.6-5.9-4.7-5.9
	c-1.9,0-3.3,0.6-5.3,1.9l-0.1-0.1c1.9-2.8,5-5.5,8.6-5.5s5.9,2.7,5.9,7.4v13.6c0,2.8,1.4,3.9,3.7,4.4v0.2C42.4,39,40.5,39,38.7,39
	S35.4,39,33.4,38.8z"/>
<path d="M48.3,38.8v-0.2c2-0.6,3.1-1.6,3.1-4.4V16.3h-3.2v-0.5l3.2-2.1v-0.1c0-6.7,1.3-11.1,5.4-12.4C57.3,1,57.8,1,58.2,1l0.1,0.1
	C56.8,3,55.8,6,55.8,13.8h4.6c1,0,1.7,0,2.5-0.1l0.1,0.1c-0.7,1.6-1.7,2.5-3.8,2.5h-3.4v17.9c0,2.8,1.3,3.9,3.7,4.4v0.2
	C57.3,39,55.5,39,53.7,39S50.3,39,48.3,38.8z M61.7,2.5c-0.5,0-0.8,0.1-1.2,0.2l-0.1-0.1C61.1,1.2,62.8,0,64.7,0
	c2.3,0,3.7,1.4,3.7,3.3c0,1.5-1,2.8-2.3,3.4l-0.1-0.1C65.7,4.4,64.2,2.5,61.7,2.5z"/>
<path d="M63.7,29.2c0-5.1,2.7-9.4,6.4-10l0.1,0.1c-1.4,1.8-2,4.3-2,7c0,6.3,3.4,10.4,8.7,10.4c1.4,0,3-0.3,4.1-0.9L81,36
	c-1.6,2-4.4,3.5-7.7,3.5C67.5,39.4,63.7,35.2,63.7,29.2L63.7,29.2z M82.1,26.3c0-6.3-3.4-10.4-8.7-10.4c-1.5,0-3,0.3-4.1,0.9
	l-0.1-0.1c1.6-2,4.4-3.5,7.7-3.5c5.9,0,9.7,4.2,9.7,10.3c0,5.1-2.7,9.4-6.4,10l-0.1-0.1C81.5,31.5,82.1,29,82.1,26.3L82.1,26.3z"/>
<rect class="st0" width="86.6" height="39.5"/>
</svg>
