<?xml version="1.0" encoding="UTF-8"?>
<svg id="_레이어_1" data-name="레이어 1" xmlns="http://www.w3.org/2000/svg" version="1.1" viewBox="0 0 94 60">
  <defs>
    <style>
      .cls-1 {
        fill: #efeeeb;
        stroke-width: 0px;
      }
    </style>
  </defs>
  <path class="cls-1" d="M5.18,49.11v-.24c2.04-.6,3.06-1.62,3.06-4.38v-15c0-1.74-.36-3-2.16-3.3-.72-.06-1.62.06-2.28.24v-.24c1.68-1.14,5.82-2.76,8.1-2.76.66,0,.78,1.2.78,5.82v15.24c0,2.76,1.38,3.9,3.72,4.38v.24c-2.22.18-4.08.18-5.88.18s-3.36,0-5.34-.18ZM6.92,15.27c0-1.74,1.26-3,3.06-3s3.06,1.26,3.06,3-1.26,2.94-3.06,2.94-3.06-1.26-3.06-2.94Z"/>
  <path class="cls-1" d="M20.72,49.11v-.24c2.04-.6,3.06-1.62,3.06-4.38v-13.62c0-2.46-.24-4.2-1.74-4.44-.72-.18-1.68-.12-2.7,0v-.24c2.82-1.74,6.3-2.76,7.92-2.76.42,0,.72.36.72,2.76,0,2.04-.12,4.2-.48,6.72.84-.66,1.74-1.14,2.76-1.5l.12.12c-1.26,2.58-2.16,4.56-2.16,9.24v3.72c0,2.76,1.38,3.9,3.72,4.38v.24c-2.22.18-4.08.18-5.88.18s-3.36,0-5.34-.18ZM37.04,49.11v-.24c2.04-.6,3.06-1.62,3.06-4.38v-11.58c0-4.14-1.62-5.88-4.74-5.88-1.86,0-3.3.6-5.28,1.92l-.12-.06c1.86-2.76,4.98-5.46,8.64-5.46s5.94,2.7,5.94,7.44v13.62c0,2.76,1.38,3.9,3.72,4.38v.24c-2.22.18-4.08.18-5.88.18s-3.36,0-5.34-.18Z"/>
  <path class="cls-1" d="M51.98,49.11v-.24c1.98-.6,3.06-1.62,3.06-4.38v-17.88h-3.24v-.48l3.24-2.1v-.12c0-6.66,1.26-11.1,5.4-12.42.54-.18.96-.24,1.44-.24l.06.12c-1.5,1.92-2.46,4.92-2.46,12.66h4.62c.96,0,1.68,0,2.46-.06l.06.12c-.66,1.62-1.68,2.52-3.78,2.52h-3.36v17.88c0,2.76,1.32,3.9,3.72,4.38v.24c-2.28.18-4.08.18-5.88.18s-3.42,0-5.34-.18ZM65.3,12.81c-.48,0-.84.06-1.2.18l-.12-.12c.78-1.44,2.46-2.58,4.38-2.58,2.28,0,3.66,1.44,3.66,3.3,0,1.5-.96,2.82-2.34,3.36l-.12-.06c-.24-2.22-1.74-4.08-4.26-4.08Z"/>
  <path class="cls-1" d="M67.34,39.45c0-5.1,2.7-9.36,6.42-9.96l.06.12c-1.38,1.8-2.04,4.26-2.04,6.96,0,6.3,3.36,10.44,8.7,10.44,1.44,0,3-.3,4.14-.9l.06.12c-1.56,2.04-4.44,3.48-7.68,3.48-5.88,0-9.66-4.2-9.66-10.26ZM85.76,36.57c0-6.3-3.36-10.44-8.7-10.44-1.5,0-3,.3-4.14.9l-.06-.12c1.56-2.04,4.44-3.48,7.68-3.48,5.88,0,9.66,4.2,9.66,10.26,0,5.1-2.7,9.36-6.42,9.96l-.06-.12c1.38-1.8,2.04-4.26,2.04-6.96Z"/>
</svg>