<?xml version="1.0" encoding="UTF-8"?>
<svg id="_레이어_1" data-name="레이어 1" xmlns="http://www.w3.org/2000/svg" version="1.1" viewBox="0 0 595 276">
  <defs>
    <style>
      .cls-1 {
        fill: none;
      }

      .cls-1, .cls-2 {
        stroke-width: 0px;
      }

      .cls-2 {
        fill: #000;
      }
    </style>
  </defs>
  <rect class="cls-1" x="45" y="45" width="505" height="186"/>
  <g>
    <g>
      <path class="cls-2" d="M151.36,213.99v-.31c2.57-.78,3.98-2.11,3.98-5.69v-23.32h-4.21v-.62l4.21-2.65v-.78c0-7.72,1.87-13.42,7.02-15.05.7-.23,1.25-.39,1.87-.39l.08.16c-1.79,2.34-3.2,6.16-3.2,15.21v.86h11.78c2.73,0,4.84-.23,6.4-.55.86-.16,1.48-.23,1.79-.23.55,0,.94.55.94,3.59,0,2.65-.23,5.54-.62,8.74,1.01-.78,2.18-1.4,3.59-1.95l.16.16c-1.72,3.82-2.81,6.32-2.81,12.01v4.84c0,3.59,1.79,5.07,4.84,5.69v.31c-2.89.23-5.3.23-7.64.23s-4.37,0-6.94-.23v-.31c2.65-.78,3.98-2.11,3.98-5.69v-23.32h-15.44v23.32c0,3.59,1.72,5.07,4.84,5.69v.31c-2.96.23-5.3.23-7.64.23s-4.45,0-6.94-.23ZM168.68,166.8c-.62,0-1.09.08-1.56.23l-.16-.16c1.01-1.87,3.2-3.35,5.69-3.35,2.96,0,4.76,1.87,4.76,4.29,0,1.95-1.25,3.67-3.04,4.37l-.16-.08c-.31-2.89-2.26-5.3-5.54-5.3ZM193.33,189.18h-.16c-.62-2.18-1.64-3.51-3.74-3.51-1.72,0-3.35,1.01-4.68,2.11l-.16-.08c1.48-3.74,4.99-7.1,8.19-7.1,2.26,0,3.35,1.64,3.35,3.67s-1.4,4.21-2.81,4.91Z"/>
      <path class="cls-2" d="M198.56,201.43c0-6.63,3.51-12.17,8.35-12.95l.08.16c-1.79,2.34-2.65,5.54-2.65,9.05,0,8.19,4.37,13.57,11.31,13.57,1.87,0,3.9-.39,5.38-1.17l.08.16c-2.03,2.65-5.77,4.52-9.98,4.52-7.64,0-12.56-5.46-12.56-13.34ZM222.51,197.69c0-8.19-4.37-13.57-11.31-13.57-1.95,0-3.9.39-5.38,1.17l-.08-.16c2.03-2.65,5.77-4.52,9.98-4.52,7.64,0,12.56,5.46,12.56,13.34,0,6.63-3.51,12.17-8.35,12.95l-.08-.16c1.79-2.34,2.65-5.54,2.65-9.05Z"/>
      <path class="cls-2" d="M234.48,213.99v-.31c2.65-.78,3.98-2.11,3.98-5.69v-17.71c0-3.2-.31-5.46-2.26-5.77-.94-.23-2.18-.16-3.51,0v-.31c3.67-2.26,8.19-3.59,10.3-3.59.55,0,.94.47.94,3.59,0,2.65-.16,5.46-.62,8.74,1.09-.86,2.26-1.48,3.59-1.95l.16.16c-1.64,3.35-2.81,5.93-2.81,12.01v4.84c0,3.59,1.79,5.07,4.84,5.69v.31c-2.89.23-5.3.23-7.64.23s-4.37,0-6.94-.23ZM255.7,213.99v-.31c2.65-.78,3.98-2.11,3.98-5.69v-14.43c0-5.93-1.64-8.19-5.62-8.19-2.5,0-4.76.7-7.41,2.42l-.16-.08c2.42-3.59,7.1-7.1,11.86-7.1,4.45,0,6.55,3.12,6.55,8.19,0,.94-.08,2.03-.31,4.29.94-.86,2.18-1.48,3.59-2.11l.16.08c-1.56,3.98-2.89,6.16-2.89,11.7v5.23c0,3.59,1.79,5.07,4.84,5.69v.31c-2.89.23-5.3.23-7.64.23s-4.37,0-6.94-.23ZM277.07,213.99v-.31c2.57-.78,3.98-2.11,3.98-5.69v-15.05c0-5.38-2.11-7.64-6.24-7.64-2.34,0-4.29.78-6.86,2.5l-.16-.08c2.5-3.59,6.47-7.1,11.23-7.1s7.8,3.51,7.8,9.67v17.71c0,3.59,1.72,5.07,4.84,5.69v.31c-2.96.23-5.3.23-7.64.23s-4.45,0-6.94-.23Z"/>
      <path class="cls-2" d="M298.76,211.03c0-2.26,1.64-3.9,3.98-3.9s3.98,1.64,3.98,3.9-1.64,3.9-3.98,3.9-3.98-1.64-3.98-3.9Z"/>
      <path class="cls-2" d="M308.45,226.47c0-1.56,1.95-2.42,4.91-2.42,1.33,0,2.65.08,3.82.16,1.09.08,2.11.16,3.12.16.94,0,1.79-.08,2.81-.31l.08.16c-1.64,3.2-5.23,4.91-9.44,4.91-3.28,0-5.3-1.09-5.3-2.65ZM317.19,198.08c-2.34-8.89-3.35-12.71-5.85-13.73-1.01-.23-1.95-.23-2.65-.16v-.23c3.35-1.79,7.41-3.35,8.74-3.35.78,0,1.17.31,1.48,1.4l4.52,17.4c1.87,7.33,3.2,12.95,3.2,15.52,0,3.43-1.64,5.23-4.76,5.23-.16-3.2-2.5-13.34-4.68-22.07ZM334.58,188.64c0-3.04-.62-4.13-2.5-4.6-.62-.16-1.79-.08-2.5,0v-.23c3.28-1.4,7.96-3.2,10.53-3.2.23,0,.39.31.39.94,0,2.18-1.4,7.8-3.67,14.59-2.18,6.32-5.23,12.4-7.72,13.81l-.16-.16c1.72-4.91,5.62-15.52,5.62-21.14Z"/>
      <path class="cls-2" d="M344.68,200.96c0-6.55,3.2-11.62,7.96-12.4l.08.16c-1.4,2.11-2.26,5.46-2.26,8.89,0,8.04,4.45,13.03,11.62,13.03,3.2,0,6.63-.94,8.27-2.18l.16.16c-1.72,3.67-6.79,6.16-12.17,6.16-8.42,0-13.65-5.38-13.65-13.81ZM356.23,194.96v-.47c4.84-.47,7.88-1.09,9.59-1.56-.08-5.85-3.04-8.97-8.58-8.97-1.87,0-4.13.47-5.93,1.25l-.08-.16c2.42-2.73,6.32-4.45,10.14-4.45,6.08,0,9.98,4.52,9.98,11.47,0,.55,0,1.25-.16,2.89-2.42.16-4.37.16-6.63.16s-4.76,0-8.35-.16Z"/>
      <path class="cls-2" d="M367.3,226.63c0-1.4,1.87-2.26,4.52-2.26,1.25,0,2.57.16,3.82.23.94.08,2.03.16,2.89.16.78,0,1.64-.08,2.57-.31l.16.16c-1.64,2.96-4.99,4.52-8.97,4.52-3.04,0-4.99-1.01-4.99-2.5ZM378.61,221.01l-.08-.16c.86-1.48,1.4-4.29,1.4-8.42v-23.95c0-2.26-.47-3.9-2.81-4.29-.86-.08-1.95.08-2.81.31v-.31c2.26-1.48,7.41-3.59,10.37-3.59.86,0,1.01,1.56,1.01,7.88v19.19c0,8.35-2.18,13.5-6.01,13.5-.39,0-.7-.08-1.09-.16ZM378.45,170c0-2.26,1.64-3.9,3.98-3.9s3.98,1.64,3.98,3.9-1.64,3.82-3.98,3.82-3.98-1.64-3.98-3.82Z"/>
      <path class="cls-2" d="M393.66,213.99v-.31c2.65-.78,3.98-2.11,3.98-5.69v-19.5c0-2.26-.47-3.9-2.81-4.29-.94-.08-2.11.08-2.96.31v-.31c2.18-1.48,7.57-3.59,10.53-3.59.86,0,1.01,1.56,1.01,7.57v19.81c0,3.59,1.79,5.07,4.84,5.69v.31c-2.89.23-5.3.23-7.64.23s-4.37,0-6.94-.23ZM395.93,170c0-2.26,1.64-3.9,3.98-3.9s3.98,1.64,3.98,3.9-1.64,3.82-3.98,3.82-3.98-1.64-3.98-3.82Z"/>
      <path class="cls-2" d="M412.93,213.99v-.31c2.65-.78,3.98-2.11,3.98-5.69v-17.71c0-3.2-.31-5.46-2.26-5.77-.94-.23-2.18-.16-3.51,0v-.31c3.67-2.26,8.19-3.59,10.3-3.59.55,0,.94.47.94,3.59,0,2.65-.16,5.46-.62,8.74,1.09-.86,2.26-1.48,3.59-1.95l.16.16c-1.64,3.35-2.81,5.93-2.81,12.01v4.84c0,3.59,1.79,5.07,4.84,5.69v.31c-2.89.23-5.3.23-7.64.23s-4.37,0-6.94-.23ZM434.15,213.99v-.31c2.65-.78,3.98-2.11,3.98-5.69v-15.05c0-5.38-2.11-7.64-6.16-7.64-2.42,0-4.29.78-6.86,2.5l-.16-.08c2.42-3.59,6.47-7.1,11.23-7.1s7.72,3.51,7.72,9.67v17.71c0,3.59,1.79,5.07,4.84,5.69v.31c-2.89.23-5.3.23-7.64.23s-4.37,0-6.94-.23Z"/>
    </g>
    <g>
      <path class="cls-2" d="M406.53,97.27c-15.02-.7-18.87-3.03-18.87-3.03.49,4.81,6.13,12.2,28.38,9.45,2.69-.33,5.47-.62,8.28-.86v31.4h.24s0,0,0,0h11.39v-1.08s-4.14,0-4.43-3.2c-.18-2.06-.13-20.07-.07-27.67,18.15-1.2,35.42-.98,35.42-.98-8.65-10.99-41.58-3.15-60.35-4.03Z"/>
      <path class="cls-2" d="M167.5,86.4l4.09-4.78.37-.37-.05-.04c3.67-4.56,6.78-9.35,9.26-14.24.7-1.38.74-2.99.11-4.41-.63-1.42-1.85-2.48-3.35-2.89l-1.91-.53-.3-.05-.12.11c-.38.11-2.07.53-8.72,1.6-8.57,1.37-24.7-.62-24.87-.64l-.37-.05-.64,1.45c1.53,1.44,6.15,5.1,14.66,6.18,5.81-.79,14.26-2.94,17.13-1.9-6.1,12.98-18.38,25.49-34.69,35.3l-.42.26.35.61c3.24-.74,13.8-3.55,24.07-10.5,1.85-1.53,3.65-3.2,5.43-5.12Z"/>
      <path class="cls-2" d="M202.05,54.1v29.22-.07s0,22.03,0,22.03h.24s0,0,0,0h11.39v-1.08s-4.14,0-4.43-3.2c-.19-2.18-.12-13.03-.06-19.72.05-1.72.07-3.5.07-5.34v-11.96c0-3.1.08-6.13.23-9.28.01-.3,0-.59-.01-.88.05-2.82-.11-5.87-1.54-7.87-.52-.73-1.66-.98-3.09-.94-.09.01-.17.03-.27.04-8.5.99-12.36,3.95-12.99,4.48,1.8-.21,10.45-.91,10.45,4.58Z"/>
      <path class="cls-2" d="M172.23,83.62l-1.13,1.2c-.02.94.57,2.37,1.41,3.89,2.3,4.17,5.57,7.78,9.63,10.26,2.37,1.45,5.04,2.58,8,3.15l3.93-3.19s-.95-.5-2.48-1.38c-12.98-7.39-19.37-13.93-19.37-13.93Z"/>
      <path class="cls-2" d="M191.07,128.48c-13.38,1.42-18.45-.41-20.38-1.94-.95-.71-1.14-1.38-1.18-1.65,0-.02,0-.03,0-.03v-5.79c.03-.64.04-1.27.07-1.91.02-.3,0-.6-.01-.89.06-2.85-.11-5.93-1.56-7.95-.52-.73-1.68-.99-3.13-.95-.09.01-.17.03-.27.04-8.59,1-12.48,3.99-13.12,4.52,1.24-.14,5.69-.51,8.4,1.02,2.34,1.67,2.04,4.66,2.04,4.66v7.81c0,3.43.71,6.06,2.08,7.23,1.19,1.01,3.52,2.9,16.25,2.53,11.02-.31,22.17-2.7,29.2-5.66.09-.04.19-.08.28-.12,2.35-1.01,4.22-2.09,5.44-3.19l-1.42-1.46s-3.72,1.7-22.69,3.71Z"/>
      <path class="cls-2" d="M55.82,87.94c0-3.74,1.28-6.94,3.72-9.26.55-.59,1.24-1.11,2.06-1.55.54-.32,1.14-.62,1.81-.88,2.35-1.17,4.14-2.12,5.45-3.01.05-.06.09-.11.14-.16,5.45-6.48-5.26-9.86-5.26-9.86h0s-.52.9-.52.9c.16.21,1.13,1.55,1.4,2.93.07.24.11.48.11.7,0,.8-.44,1.83-1.66,2.13-8.65,2.11-14.24,9.21-14.24,18.08,0,10.83,8.26,18.68,19.63,18.68,1.05,0,2.08-.07,3.08-.2h-.11s-15.61-4.23-15.61-18.48Z"/>
      <path class="cls-2" d="M124.43,129.95c-.19-2.18-.12-8.86-.06-15.55.05-1.72.07-3.5.07-5.34v-45.08c0-3.1.08-6.13.23-9.28.01-.3,0-.59-.01-.88.05-2.82-.11-5.87-1.54-7.87-.52-.73-1.66-.98-3.09-.94-.09.01-.17.03-.27.04-8.5.99-12.36,3.95-12.99,4.48,1.8-.21,10.45-.91,10.45,4.58v62.34-.07s0,17.86,0,17.86h.24s0,0,0,0h11.39v-1.08s-4.14,0-4.43-3.2Z"/>
      <path class="cls-2" d="M541.75,129.95c-.19-2.18-.12-8.86-.06-15.55.05-1.72.07-3.5.07-5.34v-45.08c0-3.1.08-6.13.23-9.28.01-.3,0-.59-.01-.88.05-2.82-.11-5.87-1.54-7.87-.52-.73-1.66-.98-3.09-.94-.09.01-.17.03-.26.04-8.5.99-12.36,3.95-12.99,4.48,1.8-.21,10.45-.91,10.45,4.58v28.64c-2.47.34-5.57.51-7.84.59-3.59.11-7.34-.2-10.28-.83l-.46-.1-.99,3.38s2.98,2.61,8.96,2.96c0,0,0,0,0,0,.19.02.39.02.59.03,2.43.08,4.78-.27,6.77-.73.1-.02.2-.04.3-.05.74-.18,1.41-.38,2.02-.57.34-.1.64-.2.93-.3v29.32-.07s0,17.86,0,17.86h.24s0,0,0,0h11.39v-1.08s-4.14,0-4.43-3.2Z"/>
      <path class="cls-2" d="M107.33,129.95c-.19-2.18-.12-8.86-.06-15.55.05-1.72.07-3.5.07-5.34v-36.13c0-3.1.08-6.13.23-9.28.01-.3,0-.59-.01-.88.05-2.82-.11-5.87-1.54-7.87-.52-.73-1.66-.98-3.09-.94-.09.01-.17.03-.27.04-8.5.99-12.36,3.95-12.99,4.48,1.68-.19,9.25-.8,10.32,3.51h0v12.71c-2.5.41-5.41.66-7.7.66-3.77.11-6.56-.01-9.31-.39,0,0-4.38-3.09-9.01-1.11-.06.02-.1.04-.15.06-.47.38-.9.82-1.26,1.33l-.4.56.65.22c5.18,1.71,8.27,6.17,8.27,11.93,0,1.01-.1,1.95-.26,2.84-.3,3.37-2.16,5.68-4.43,7.24-1.1.82-2.33,1.44-3.62,1.86-2.57.97-4.94,1.3-5.73,1.37.68.66,1.5,1.24,2.48,1.68.27.08.55.16.81.25,7.25,1.3,11.03-.82,12.7-2.31.39-.4.77-.82,1.11-1.26l.26-.45s3.71,2.46,5.75,2.58c.22.01.32.04.33.06.9.05,1.86.02,2.84-.14,4.11-.7,6.66-1.28,6.66-1.28v.66s0,0,.01,0v13.83c0,4.86,0,5.34.13,10.04v9.32h.24s0,0,0,0h11.39v-1.08s-4.14,0-4.43-3.2ZM100.13,95.97c-2.35.29-5.22.48-7.62.48-2.73,0-4.73,0-6.83-.32,1.16-2.42,1.89-5.15,1.89-8.2,0-3.26-.84-6.31-2.21-8.83.35.13.71.26,1.06.39,1.43.46,4.14,1.11,6.97.63,4.15-.7,6.73-1.28,6.73-1.28v.55h0v16.57Z"/>
      <path class="cls-2" d="M264.92,102.76c1.16,0,2.3-.08,3.41-.23h-.12s-17.25-4.68-17.25-20.43c0-4.14,1.41-7.67,4.11-10.23.61-.65,1.37-1.23,2.28-1.72.6-.36,1.26-.68,2-.98,2.6-1.29,4.58-2.35,6.02-3.33.05-.06.09-.12.15-.18,6.02-7.17-5.82-10.9-5.82-10.9h-.01s-.57,1-.57,1c.17.23,1.25,1.72,1.55,3.24.08.26.12.53.12.77,0,.88-.49,2.02-1.83,2.35-9.56,2.33-15.74,10.18-15.74,19.99,0,11.97,9.13,20.65,21.7,20.65Z"/>
      <path class="cls-2" d="M279.04,81.31c0,1.12-.11,2.16-.29,3.13-.34,3.73-2.38,6.27-4.89,8.01-1.22.91-2.57,1.59-4,2.06-2.84,1.08-5.46,1.43-6.33,1.52.75.73,1.65,1.37,2.73,1.86.3.09.61.19.92.28.77.14,1.49.23,2.19.3l-.08-.04c11.64.06,14.85-8.05,14.85-8.05,1.28-2.67,2.09-5.69,2.09-9.06,0-3.6-.93-6.97-2.44-9.76,0,0-4.51-7.15-10.87-6.26-1.3.18-2.51.88-3.28,1.95,0,0,0,.01-.01.02l-.44.62.72.24c5.72,1.89,9.14,6.82,9.14,13.19Z"/>
      <path class="cls-2" d="M246.33,118.93c-13.66-.74-21-6.67-21-6.67.35,3.92,5.89,11.62,17.93,13.45.95.14,1.94.25,2.98.32,2.64.17,5.55.07,8.75-.38,20.24-2.87,49.03-2.51,49.03-2.51-7.87-11.48-40.61-3.28-57.68-4.2Z"/>
      <path class="cls-2" d="M351.98,117.82c-.1-2.49-.43-5.52-1.37-8-1.96-5.14-10.97-.37-10.97-.37,4.9.88,5.48,5.46,5.19,8.92-5.82.43-11.29.75-15.73.54-14.17-.68-21.79-6.21-21.79-6.21.47,4.68,9.76,15.13,30.76,12.46,21-2.67,50.87-2.34,50.87-2.34-5.3-6.93-21.43-6.16-36.96-4.99Z"/>
      <path class="cls-2" d="M317.83,59.87l-.04.05s.01.02.02.02c0-.02.01-.05.02-.07Z"/>
      <path class="cls-2" d="M330.89,67.57c1.49-.08,3.27-.26,5.12-.48,5.74-1.01,11.2-3.24,17.59-3.24,7.01,0,9.16.02,9.31,4.52,0,.06.01.12.01.18v.12c0,.81-.04.72-.13,1.82,0,.07-.03.14-.04.21l-.34,5.24.89-.75c3.11-2.61,5.41-3.52,6.84-6.79.13-.3.26-.59.39-.87.26-.57.41-1.19.44-1.82.07-1.31-.34-2.6-1.2-3.59-1.08-1.24-3.03-2.68-6.45-3.35-1.9-.38-4.24-.39-7.13.19-3.35.67-7.16,1.15-11.03,1.44-5.18.13-9.33.2-12.44.15-4.02-.1-8.33-.38-12.57-1.76l-.44-.14-.56.8c.83,1.26,5.55,8.02,11.74,8.13Z"/>
      <path class="cls-2" d="M324.89,84.48c.03.29.06.6.06.93v5.43c0,3.41.63,5.93,2.03,7.32,1.63,1.61,4.31,2.29,9.16,2.29.22,0,.44,0,.67,0l8.28-.2h0s5.34-.09,5.34-.09c.82-.04,1.71,0,2.66-.08,8.5-.77,13.26-3.92,16.05-6.94,1.61-1.73,2.32-3.85,2.32-3.85l-.95-1.37c-1.63,1.52-3.56,2.65-5.45,3.5-4.52,2.03-8.9,2.44-8.9,2.44-6.77.79-13.87,1.15-20.71.94-2.42-.1-2.88-1-2.88-2.65v-8.24s9.79.54,20.23-.76c1.87-.23,3.72-.52,5.5-.89,6.85-1.4,10.03-3.43,11.49-4.89.06-.06.12-.11.17-.17l-.54-1.38-.21-.24c-.29.15-.65.3-1.08.46-2.61.96-7.97,2-18.94,2-.62,0-1.2,0-1.76,0-6.01.21-10.31.29-15.4.25-.06-.1-.15-.25-.3-.39-.6-.56-1.3-1.03-2.05-1.4l-.02.03c-3.86-1.71-10.65.07-11.63.34l-.17.48c1.16.12,6.48,1,6.99,7.14Z"/>
      <path class="cls-2" d="M487.56,99.92l-.08-9.51s0-.2-.03-.56h4.08c12.17,0,18.87-6.31,18.87-6.31l-.42-1.45c-4.32,1.52-14.72,1.83-21.69,1.86-.34,0-.68,0-1,0-.16,0-.32,0-.47,0-.64-4.12-1.9-9.22-4.3-12.2l-2.8-.24c.04,3.98.22,22.6.22,29.87.09,1.23.37,3.39,1.18,5.03,2.1,3.77,7.88,8.74,23.32,2.4,11.26-4.77,17.47-12.07,17.47-12.07l-.37-.75c-11.83,6.18-32.96,15.52-33.97,3.91Z"/>
      <path class="cls-2" d="M405.62,58.47v2.51s.08,1.77.08,1.77h0s.77,29.15.77,29.15c0,0,2.95-1.05,5.42-6.83,0,0,.02,0,.02,0,.02,0,.03,0,.05,0,1.99.04,4.61.07,8.19.07,10.59,0,18.4-3.5,19.42-3.98.07-.03.11-.1.11-.18v-2.02c-10.21.8-21.8.92-27.18.91h0c.03-.5.03-.96.03-1.38v-11.33c2.09.03,4.79.06,8.39.06,11.37,0,19.76-3.5,20.86-3.98.08-.03.12-.1.12-.18v-2.02c-11.01.81-23.53.92-29.27.91v-.06c0-.18,0-.39,0-.58.03-.75.05-1.5.09-2.26.01-.28,0-.56-.01-.84.05-2.7-.11-5.61-1.48-7.53-.5-.7-1.59-.93-2.96-.9-.09.01-.16.03-.25.04-8.13.95-11.82,3.78-12.42,4.28,1.73-.2,10-.87,10,4.38Z"/>
      <path class="cls-2" d="M444.58,55.02v1.55h0s-.04,33.62-.04,33.62h.15c.89-.82,5.85-5.9,6.62-17.66l.16-8.06h0c0-.1,0-.2,0-.31l.12-5.79c.03-.92.06-1.84.1-2.78.01-.28,0-.56-.01-.84.05-2.7-.11-5.61-1.48-7.53-.5-.69-1.59-.93-2.96-.9-.09.01-.16.03-.25.04-8.13.95-11.82,3.78-12.42,4.28,1.73-.2,10-.87,10,4.38Z"/>
      <path class="cls-2" d="M510.76,65.78c3.03-1.72,4.49-3.33,4.49-3.33l-.26-1.03c-26.88,4.29-41.11,1.86-41.11,1.86l-.59,2.57s.77.3,2.1.74c4.85,1.66,9.22,2.61,13.14,3.05,10.7,1.19,18-1.44,22.23-3.85Z"/>
    </g>
  </g>
</svg>