<svg width="60" height="80" viewBox="0 0 60 80" fill="none" xmlns="http://www.w3.org/2000/svg">
<g style="mix-blend-mode:multiply" clip-path="url(#clip0_585_202)">
<path d="M30 0C8.54127 0 0 17.8827 0 39.6C0 61.3173 8.54127 79.2 30 79.2C51.4587 79.2 60 61.3173 60 39.6C60 17.8827 51.4779 0 30 0Z" fill="#B5BBA1"/>
<g clip-path="url(#clip1_585_202)">
<path d="M29.436 14.3674C29.436 14.3674 29.4431 14.3674 29.4467 14.3674C29.4467 14.3639 29.4467 14.3605 29.4467 14.3535L29.436 14.3674Z" fill="white"/>
<path d="M24.3809 18.3984C24.3809 18.3984 24.3809 18.3984 24.3809 18.4017C24.3973 18.4083 24.4138 18.4149 24.4303 18.4248C24.4204 18.4149 24.4105 18.4083 24.4006 18.3984C24.3941 18.3984 24.3908 18.3984 24.3842 18.3984H24.3809Z" fill="white"/>
<path d="M33.842 20.0222C33.0341 19.8081 32.2262 19.594 31.4182 19.3833C31.3918 19.4557 31.3621 19.5315 31.3358 19.6039C31.804 19.8114 32.269 20.0189 32.7373 20.2297C32.6812 20.3318 32.6285 20.4306 32.5724 20.5328C31.9063 20.1803 31.2401 19.8312 30.574 19.4788C30.6004 19.3635 30.63 19.2482 30.6564 19.1329C31.6556 18.9682 32.6549 18.8036 33.6541 18.6356L33.6079 18.3457C32.7967 18.4478 31.9887 18.5467 30.9961 18.6718C31.5765 18.2535 32.0085 17.9439 32.4372 17.6343C32.3976 17.5816 32.3614 17.5256 32.3218 17.4729C31.9557 17.6804 31.5864 17.8846 31.2236 18.0888C30.8081 17.4367 30.4454 16.8438 31.6688 16.5803C31.5963 16.5046 31.5237 16.4288 31.4545 16.3531C30.8576 16.5408 30.2607 16.7318 29.4956 16.9723C29.6045 16.1192 29.7067 15.4901 29.7561 14.861C29.7726 14.6634 29.9969 14.2286 29.4396 14.367C29.3571 15.2991 29.2714 16.2345 29.1823 17.2226C29.9639 17.1765 30.5674 17.351 30.7422 18.1119C30.7817 18.2799 30.5575 18.5104 30.4553 18.7146C30.3794 18.6916 30.3036 18.6652 30.231 18.6422V17.8583C29.8056 17.9274 29.3835 18.0559 28.9614 18.0493C28.5426 18.0427 28.1271 17.9044 27.7313 17.8286C27.7478 17.9834 27.7742 18.2403 27.8006 18.5104C26.9465 18.4643 26.7717 18.1876 26.9992 17.2489C27.0619 17.5618 27.1147 17.822 27.1674 18.079C27.2664 18.2008 27.362 18.3227 27.4609 18.4446C27.1081 16.2971 28.6085 18.0954 28.9119 17.2391C28.7932 16.6989 28.6646 16.106 28.536 15.5132C28.4568 15.5296 28.381 15.5428 28.3018 15.5593C28.3612 16.0566 28.4239 16.554 28.4832 17.0546C28.4074 17.0711 28.3315 17.0876 28.2524 17.1007C28.1699 16.8241 28.0875 16.5507 27.9886 16.218C27.8237 16.4058 27.7017 16.5935 27.5368 16.7285C27.1246 17.0612 26.2144 16.9196 26.0693 16.4354C26.0132 16.2444 26.376 15.9282 26.5804 15.6186C26.4056 15.5659 26.1616 15.4934 25.8978 15.4144V14.5811C25.6505 14.9796 25.512 15.2102 25.3273 15.5066C24.981 15.0323 24.6677 14.6074 24.2258 13.9981C24.6512 14.1232 24.9052 14.199 25.4394 14.3571C24.9975 13.7939 24.704 13.4151 24.4831 13.1318C24.183 13.56 23.9818 13.9487 23.685 14.2418C23.1805 14.7457 23.2794 15.2102 23.6586 15.7042C23.7114 15.3452 23.7609 14.9829 23.8466 14.3834C24.2028 14.838 24.3545 15.0685 24.5424 15.2661C24.7304 15.4605 24.9513 15.6219 25.0931 15.7404C24.9678 16.1917 24.8689 16.554 24.7667 16.9196C24.8062 16.9657 24.8458 17.0085 24.8854 17.0546C25.0536 16.7812 25.2218 16.5079 25.4031 16.218C26.3265 17.4828 26.4793 18.4369 25.8615 19.0802C25.3801 18.8629 24.9019 18.6455 24.427 18.4281C25.0635 18.9847 25.6999 19.5446 26.3661 20.1243V19.1758C26.4353 19.1461 26.5079 19.1198 26.5771 19.0901C26.7948 19.4425 27.2598 19.8938 27.1707 20.1276C27.0388 20.4603 26.5013 20.6381 26.0759 20.9214C26.0594 21.007 26.0198 21.2244 25.9736 21.4912C26.1154 21.4747 26.2441 21.4517 26.3793 21.4451C26.5046 21.4385 26.6332 21.4451 26.7585 21.4451C26.8289 22.4003 27.1125 22.7362 27.6093 22.453C27.4444 23.1677 27.3125 23.7276 27.1839 24.2908C27.2664 24.3073 27.3521 24.3238 27.4345 24.3403C27.6225 23.5498 27.8072 22.7593 27.9952 21.9688C28.2557 23.3521 28.0051 24.7157 28.6514 25.9805C28.7701 25.8586 28.7668 25.7071 28.8394 25.6149C29.0867 25.302 29.3571 25.0122 29.6176 24.7124C29.9408 25.0352 30.5113 25.2328 30.7158 25.6182C30.9005 25.964 30.696 26.5075 31.2533 26.8863L31.6985 27.5154C31.1082 26.6623 31.0192 25.7697 30.9301 24.8771C30.9598 24.8738 30.9038 24.3732 30.9301 24.3699L31.6721 22.868C31.8403 22.9075 31.9887 22.9437 32.1404 22.98V20.5953C32.2328 20.9675 32.2789 21.2475 32.3746 21.511C32.4108 21.6131 32.5559 21.6724 32.6516 21.7514C32.8626 21.59 33.077 21.4319 33.3474 21.2244C33.0473 20.8292 32.7043 20.2561 33.8453 20.0288L33.842 20.0222ZM28.2062 20.4801C28.0446 20.1441 27.9391 19.9234 27.8039 19.6369C27.8567 19.6237 27.9919 19.5842 28.2029 19.5249C28.137 19.3569 28.071 19.1856 28.0051 19.0144C28.3117 19.0802 28.5624 19.1362 28.846 19.1988V19.8081C29.1922 19.7093 29.5319 19.6138 29.8683 19.5183C29.9111 19.6566 29.954 19.7983 29.9936 19.9366C29.3967 20.1177 28.7998 20.3022 28.2029 20.4833L28.2062 20.4801ZM29.0801 23.7639C29.1626 23.194 29.2318 22.7132 29.3373 21.9919C29.555 22.7527 30.1123 23.306 29.0801 23.7639ZM29.8815 20.4339C29.865 20.4504 29.8485 20.4702 29.832 20.4899C30.0793 21.6493 30.2805 22.5913 30.4817 23.5333C30.4454 23.5399 30.4091 23.5498 30.3761 23.5564C30.198 22.8647 30.0892 22.1401 29.8188 21.4846C29.6308 21.0301 29.6473 20.7139 29.832 20.4899C29.8254 20.4504 29.8155 20.4142 29.8089 20.3747C29.8353 20.3944 29.8584 20.4142 29.8848 20.4339C30.0134 20.3055 30.2013 20.21 30.4487 20.1342C30.5179 20.4537 30.5839 20.7435 30.6498 21.0433C30.452 20.8852 30.2574 20.7304 29.8881 20.4339H29.8815Z" fill="white"/>
<path d="M29.832 20.4898C29.8485 20.47 29.865 20.4536 29.8815 20.4338C29.8551 20.414 29.832 20.3943 29.8057 20.3745C29.8156 20.414 29.8222 20.4503 29.8287 20.4898H29.832Z" fill="white"/>
<path d="M22.9065 15.6348C22.4349 16.0662 22.0788 16.3923 21.7226 16.7217C21.7952 16.7019 21.8644 16.6789 21.937 16.6591C22.0194 17.0181 22.1051 17.3771 22.2338 17.9338C21.6534 17.7263 21.3005 17.5978 20.9443 17.4693C21.0367 17.2157 21.129 16.9654 21.195 16.7843H19.833C19.7703 17.2586 19.7011 17.7691 19.6318 18.2796C19.6813 18.2862 19.7308 18.2928 19.7802 18.2994C19.9023 18.0688 20.0276 17.8349 20.1001 17.6933C20.7926 17.8876 21.4093 18.0622 22.026 18.2335C22.026 18.2335 22.0194 18.2269 22.0194 18.2236C22.4811 18.2961 22.9395 18.3718 23.4012 18.4443C23.3187 18.2137 23.1736 18.1808 23.0912 18.0919C22.89 17.8745 22.5965 17.6439 22.5734 17.3936C22.5569 17.2223 22.9065 16.8897 23.1307 16.8534C23.4803 16.7941 23.8826 16.8666 24.2256 16.9918C24.5982 17.1268 24.928 17.3804 25.2743 17.5813C25.3039 17.5319 25.3336 17.4825 25.3633 17.4364L24.8851 17.0511C24.8456 17.0049 24.806 16.9621 24.7664 16.916C24.0739 16.4417 23.3847 15.9641 22.9065 15.6381V15.6348Z" fill="white"/>
<path d="M20.3609 19.6335C20.5093 19.3831 20.6313 19.1756 20.7566 18.9714C20.6181 18.843 20.4796 18.7178 20.3411 18.5894C19.8959 19.0966 19.4507 19.6038 19.0088 20.111C19.0813 20.1901 19.1539 20.2659 19.2264 20.3449C19.3946 20.312 19.5628 20.279 19.6749 20.256C19.7937 20.6282 19.8959 20.9444 19.9981 21.2605C20.0509 21.2441 20.1036 21.2243 20.1531 21.2078C20.1861 20.918 20.2191 20.6249 20.2421 20.4371C21.7096 20.3054 23.098 20.1835 24.483 20.0616C24.483 19.9925 24.483 19.92 24.483 19.8508H21.8086C21.7954 19.7422 21.7822 19.6335 21.769 19.5248C22.1614 19.3798 22.5506 19.2382 22.8111 19.1427C22.5407 18.8298 22.29 18.5334 22.0361 18.2402C21.8284 18.6388 21.6107 19.034 21.4194 19.4424C21.1556 20.0057 20.8094 19.9332 20.3609 19.6368V19.6335Z" fill="white"/>
<path d="M22.035 18.2411C22.035 18.2411 22.035 18.2411 22.035 18.2368C22.035 18.2368 22.0307 18.2368 22.0264 18.2368C22.0264 18.2368 22.0264 18.2411 22.0307 18.2455L22.035 18.2411Z" fill="white"/>
<path d="M22.0371 18.2375L22.03 18.2306L22.0229 18.2236C22.0229 18.2236 22.03 18.2306 22.03 18.234C22.03 18.234 22.0336 18.234 22.0371 18.234V18.2375Z" fill="white"/>
<path d="M28.4402 11.4124C29.0305 11.6068 29.7395 11.419 29.4262 12.305C30.0495 12.1667 30.6595 12.0316 31.2531 11.8999C31.0751 11.7089 30.8409 11.4618 30.7222 11.3367C30.211 11.3037 29.5383 11.3894 29.4789 11.2346C29.1756 10.4639 28.8194 10.9217 28.4402 11.0798C28.1928 11.1819 27.9224 11.2346 27.6652 11.307C27.431 11.3729 27.1936 11.4421 26.9595 11.5079C27.6223 11.7846 28.1961 12.0284 28.8029 12.282C28.704 12.0448 28.6017 11.7945 28.4402 11.4091V11.4124Z" fill="white"/>
<path d="M29.4363 14.3667L29.4462 14.3535C29.4363 14.3535 29.4264 14.3535 29.4165 14.3535C29.4231 14.3568 29.4297 14.3601 29.4363 14.3634V14.3667Z" fill="white"/>
<path d="M28.8065 12.7431C28.724 12.7168 28.6416 12.6904 28.5591 12.6641C27.8007 13.4249 27.4313 14.3076 27.7149 15.5592C27.8831 15.2035 27.9853 14.9861 28.0942 14.7588C28.3844 14.9729 28.6152 15.1442 28.846 15.3155L28.9417 15.2233C28.8164 14.9762 28.6943 14.7325 28.5459 14.4427C28.8856 14.4097 29.1527 14.3834 29.4165 14.357C29.0406 14.1627 28.6647 13.9651 28.4305 13.8465C28.5657 13.4513 28.6844 13.0955 28.8065 12.7431Z" fill="white"/>
<path d="M25.4854 23.5003C25.7756 23.138 26.0559 22.7889 26.3329 22.443L26.1878 22.3179C25.4227 22.8877 24.6577 23.4542 23.8926 24.024L23.9354 24.2579C25.0897 23.3653 24.9643 25.1307 25.8185 24.9989C25.6305 24.6827 25.4623 24.3929 25.2611 24.0569C25.614 23.9548 25.8778 23.8791 26.3494 23.744C25.9075 23.6189 25.6898 23.5563 25.4854 23.497V23.5003Z" fill="white"/>
<path d="M34.1255 17.0083C34.3926 17.2949 34.5575 17.4694 34.7455 17.6736C34.4916 17.8251 34.2772 17.9569 34.0596 18.0853C34.541 18.1743 35.006 18.1743 34.9005 18.6551C35.2665 18.6716 35.5864 18.6881 35.9855 18.7045C35.8502 18.4378 35.7084 18.1578 35.5666 17.8745C35.6952 17.6341 35.8272 17.3937 35.8436 17.364C35.4215 17.252 35.039 17.1532 34.6598 17.0544V17.061C34.5246 17.0478 34.3926 17.0347 34.1255 17.0083Z" fill="white"/>
<path d="M34.6465 17.0513L34.6604 17.0615L34.6465 17.0513Z" fill="white"/>
<path d="M30.2177 14.7853C30.864 14.9665 31.5104 15.1476 32.0809 15.309C31.9721 14.7491 31.8797 14.2649 31.7577 13.6391C31.6225 13.9685 31.5433 14.1628 31.4642 14.3538C31.4081 14.344 31.3554 14.3308 31.2993 14.3209C31.3521 14.0311 31.4048 13.7412 31.5005 13.2109C30.9333 13.9059 30.5276 14.4 30.2144 14.7886L30.2177 14.7853Z" fill="white"/>
<path d="M22.9234 21.7448C22.188 21.3529 21.6768 21.0795 21.1162 20.7798C20.9678 21.1586 20.8029 21.5769 20.6875 21.8766C21.0404 22.1994 21.2943 22.4332 21.5911 22.7066C21.5614 22.3344 21.5383 22.0215 21.5185 21.7448H22.9234Z" fill="white"/>
<path d="M21.3801 15.4603C21.6439 15.6086 21.8615 15.7337 22.0792 15.8556C21.5516 15.0256 22.2408 14.8378 22.6695 14.4492C22.3496 14.4755 22.0297 14.4986 21.6472 14.5282C21.667 14.3108 21.6868 14.1033 21.7065 13.8958C21.6142 13.8827 21.5186 13.8662 21.4262 13.853C21.2251 14.5711 21.0239 15.2924 20.8228 16.0104C20.9118 16.0367 21.0008 16.0631 21.0866 16.0894C21.1822 15.8819 21.2811 15.6711 21.3801 15.4571V15.4603Z" fill="white"/>
<path d="M33.644 21.1883C33.9309 21.1125 34.1651 21.0533 34.4652 20.9742C34.4256 21.3464 34.3959 21.6297 34.3564 21.9755C34.7488 21.5045 35.0917 21.0961 35.4347 20.6811C35.2401 20.434 34.9236 20.0322 34.6301 19.6567C34.3465 20.0948 34.0167 20.6119 33.644 21.1883Z" fill="white"/>
<path d="M24.3708 18.3983L24.3774 18.3917C24.3807 18.3917 24.384 18.3851 24.384 18.3851L24.3972 18.395C24.8259 18.3654 25.2612 18.3357 25.924 18.2896C24.9578 17.8384 24.1861 17.4761 23.4145 17.1138C23.3188 17.1961 23.2265 17.2817 23.1309 17.3641C24.7039 17.6276 23.4079 18.843 23.9883 19.4622C24.1301 19.0768 24.2554 18.7376 24.3807 18.3983H24.3741H24.3708Z" fill="white"/>
<path d="M24.3711 18.4002C24.3711 18.4002 24.3711 18.4002 24.3798 18.3916L24.3711 18.4002Z" fill="white"/>
<path d="M24.3809 18.3991C24.3809 18.3991 24.3915 18.3991 24.3986 18.3991L24.3844 18.3887C24.3844 18.3887 24.3844 18.3956 24.3809 18.3991Z" fill="white"/>
<path d="M24.378 18.395L24.3711 18.4018C24.3711 18.4018 24.378 18.4018 24.3815 18.4018C24.3815 18.3984 24.3815 18.395 24.385 18.3916L24.378 18.3984V18.395Z" fill="white"/>
<path d="M24.3774 18.3973L24.3861 18.3887C24.3861 18.3887 24.3818 18.393 24.3774 18.3973Z" fill="white"/>
<path d="M25.9573 11.6133C26.2376 11.442 26.4618 11.307 26.6861 11.1686C26.6729 11.1258 26.663 11.0863 26.6498 11.0435C26.043 11.0962 25.4362 11.1456 24.9053 11.1917C24.8822 11.4815 24.8558 11.7714 24.8394 11.9723C25.3505 12.081 25.8551 12.1864 26.5014 12.3214C26.2904 12.048 26.1321 11.8438 25.954 11.61L25.9573 11.6133Z" fill="white"/>
<path d="M23.5101 12.6903C24.0444 12.7397 24.5555 12.7825 25.2513 12.8451C24.7336 12.4202 24.3675 12.1205 23.9586 11.7812C23.6783 12.2885 22.5901 12.4828 23.2397 13.6488C23.3485 13.2634 23.4178 13.0164 23.5101 12.687V12.6903Z" fill="white"/>
<path d="M26.4385 24.561C26.5374 25.0386 26.6363 25.5228 26.7683 26.1519C26.9265 25.8093 27.0123 25.6216 27.1079 25.4108C27.3618 25.6117 27.5729 25.7764 27.7642 25.9312C27.7081 25.4108 27.6586 24.9563 27.6191 24.5643H26.4385V24.561Z" fill="white"/>
<path d="M33.6542 14.5545C34.4489 13.8529 34.3566 14.9497 34.8842 15.0881C34.7358 14.5347 34.6006 14.0472 34.4555 13.5137C33.885 13.6224 33.2024 13.4346 32.7935 14.123C32.9946 14.0604 33.1958 13.9978 33.5025 13.9056C33.5585 14.1461 33.6014 14.3272 33.6509 14.5545H33.6542Z" fill="white"/>
<path d="M32.8395 17.99C33.0208 17.9439 33.2814 17.8748 33.499 17.8155C33.4166 17.3642 33.3242 16.8504 33.2451 16.4189C32.8988 16.5408 32.5097 16.6759 32.2129 16.7813C32.4239 17.1864 32.6416 17.6113 32.8395 17.9933V17.99Z" fill="white"/>
<path d="M27.2795 13.0463C26.7485 13.0726 26.2143 13.099 25.6768 13.1253C25.7361 13.5304 25.7922 13.8894 25.8219 14.0969C26.2407 14.0772 26.6001 14.0574 26.9761 14.0377C26.8969 13.8532 26.8178 13.6655 26.7419 13.4909C26.9695 13.3723 27.1443 13.2834 27.3157 13.1945C27.3025 13.1451 27.2894 13.0924 27.2795 13.043V13.0463Z" fill="white"/>
<path d="M34.0926 21.7051C33.4891 22.3605 33.4792 22.3671 32.668 21.7775C32.8592 22.097 33.0538 22.4198 33.311 22.848C33.2945 22.9007 33.222 23.1049 33.1659 23.2663C33.6111 23.1477 34.0069 23.039 34.3927 22.9369C34.2641 22.7459 34.0959 22.5878 34.0464 22.4C33.997 22.2123 34.0662 21.9949 34.0926 21.7051Z" fill="white"/>
<path d="M32.6352 21.7547C32.6352 21.7547 32.6554 21.7681 32.6655 21.7781C32.6588 21.7681 32.6521 21.758 32.6453 21.7446C32.6419 21.7446 32.6386 21.7513 32.6318 21.7547H32.6352Z" fill="white"/>
<path d="M32.6491 21.7446L32.6353 21.7549C32.6387 21.7549 32.6422 21.748 32.6491 21.7446Z" fill="white"/>
<path d="M22.9989 24.7389C23.0483 24.1461 23.0945 23.5499 23.1407 22.9702C22.7251 23.1645 22.2536 23.3852 21.7754 23.6092C22.1975 23.9978 22.6526 24.4161 22.9989 24.7389Z" fill="white"/>
<path d="M23.9222 22.0085C24.3839 22.1303 24.6741 22.2061 24.9676 22.2851C24.9874 22.2423 25.0105 22.1962 25.0303 22.1534C24.5851 21.824 24.1399 21.4914 23.6947 21.1587C23.3418 21.9722 23.5924 22.7199 24.3377 22.9867C24.2124 22.6903 24.0937 22.4136 23.9222 22.0085Z" fill="white"/>
<path d="M32.1204 13.3719C32.127 13.2764 32.1369 13.1216 32.1534 12.9075C32.4436 12.9734 32.6646 13.0195 32.7701 13.0426C32.5294 12.8285 32.2425 12.5749 31.9127 12.2817C31.6851 12.4267 31.2564 12.7 30.897 12.9273C31.3488 13.092 31.7313 13.2303 32.1237 13.3719H32.1204Z" fill="white"/>
<path d="M25.9011 20.4765C25.8846 20.3711 25.8681 20.269 25.8516 20.1636C24.8623 20.325 23.8697 20.4864 22.8804 20.6477C22.8969 20.74 22.9101 20.8355 22.9265 20.9277C23.9192 20.7762 24.9118 20.6247 25.9044 20.4732L25.9011 20.4765Z" fill="white"/>
<path d="M34.6465 17.0519C34.6465 17.0519 34.6566 17.0519 34.66 17.0552C34.6633 17.0385 34.6667 17.0251 34.6735 17.0117C34.6633 17.0251 34.6566 17.0385 34.6465 17.0519Z" fill="white"/>
<path d="M33.9476 15.2661C33.8883 15.3353 33.8289 15.4012 33.7695 15.4703C34.4126 15.8195 34.8941 16.2476 34.6731 17.0085C34.904 16.6593 35.1315 16.3102 35.359 15.9677C35.0227 15.7997 34.4851 15.5362 33.9476 15.2694V15.2661Z" fill="white"/>
<path d="M34.6604 17.0615V17.0547C34.6569 17.0547 34.65 17.0547 34.6465 17.0513L34.6604 17.0615Z" fill="white"/>
<path d="M35.4609 50.5449L33.9572 50.3967C33.9572 41.4741 32.9217 35.1996 32.0049 31.1648C31.0123 26.7908 30.0065 24.4984 29.9966 24.4753L30.7056 24.1196C30.7452 24.2119 35.4609 33.2333 35.4609 50.5449Z" fill="white"/>
<path d="M44.4344 25.9706C44.2695 26.2011 44.1771 26.3032 44.1178 26.4218C43.8935 26.85 43.5341 27.1036 43.0724 27.1761C42.614 27.2485 42.3766 27.512 42.2249 27.9204C42.1589 28.0983 42.0468 28.3552 41.9083 28.3881C41.3675 28.5232 41.285 28.9579 41.1366 29.3729C41.0575 29.5936 40.9289 29.8011 40.8167 30.0119C40.6815 30.2688 40.5133 30.5126 40.4111 30.7826C40.3188 31.0264 40.2924 31.2997 40.2495 31.5105C39.3558 31.3492 39.5735 30.417 39.0327 29.9658C38.9865 30.1107 38.9436 30.2029 38.9271 30.3018C38.8381 30.832 38.7556 31.359 38.6765 31.8893C38.6633 31.9782 38.6666 32.0771 38.693 32.1594C38.8876 32.8017 39.0854 33.4472 39.2899 34.0862C39.5966 35.0414 39.1283 35.9373 39.1877 36.9682C38.7589 36.6619 38.6171 36.0624 37.9939 36.4412C38.0532 36.7343 38.1324 37.0439 38.1818 37.3568C38.3039 38.1341 38.4523 38.9147 38.5083 39.6986C38.5479 40.2553 38.3072 40.4364 37.707 40.4364C37.7663 40.7131 37.8521 40.9766 37.8817 41.2434C37.9543 41.9252 38.1489 42.6366 38.0203 43.2822C37.8554 44.1089 37.4201 44.8796 37.0969 45.6899C36.9716 45.5911 36.8726 45.5153 36.7143 45.3934C36.5462 46.062 36.1801 46.8888 35.9559 47.5212C35.9295 47.5837 35.9822 47.4586 35.9559 47.5212C35.7448 48.035 35.2699 48.7168 35.2271 49.2833C35.2172 49.4348 35.0457 49.5731 34.9402 49.7279L34.4488 50.245L34.1355 49.7345C33.753 48.4961 33.7958 47.1687 33.1561 46.0094C33.0769 45.8677 33.0703 45.6833 33.0308 45.5219C32.767 44.4448 32.4273 43.3876 32.3317 42.2743C32.302 41.9515 32.3119 41.5793 31.9656 41.3323C31.8733 41.4871 31.804 41.6057 31.7216 41.744C31.1676 41.2269 31.3159 40.5122 31.1148 39.9062C30.9499 39.9523 30.8279 39.9885 30.6399 40.0412C30.6102 39.2573 30.5806 38.5162 30.5476 37.6467C30.2805 37.9431 30.1156 38.1276 29.9738 38.2857C29.7264 38.1012 29.5055 37.9497 29.3043 37.7751C29.2318 37.7126 29.1592 37.5841 29.1724 37.4952C29.2977 36.5993 28.7206 35.8846 28.559 35.0611C28.47 34.6165 28.1897 34.2772 27.7379 34.0236C27.6192 34.3036 27.5203 34.5374 27.4147 34.7812C27.1443 34.4518 26.8904 34.1521 26.6463 33.8458C26.3726 33.5032 26.0857 33.1673 25.8483 32.7984C25.4328 32.1528 24.6677 31.751 23.9851 31.9058C24.1104 32.7457 24.2258 33.5954 24.3709 34.4386C24.394 34.5704 24.5523 34.6725 24.638 34.7943C24.8095 35.0348 25.0634 35.2588 25.1228 35.5255C25.2382 36.0492 25.0964 36.6355 25.5746 37.0538C25.601 37.0769 25.5911 37.1427 25.5944 37.1889C25.6175 37.9365 25.6405 38.6809 25.6669 39.4286C25.6768 39.7085 25.6966 39.9918 25.7164 40.2816C26.1088 39.9621 26.4188 39.6558 26.7816 39.4319C27.1872 39.1848 27.4708 39.3462 27.8236 39.9292C27.2564 40.7032 27.1212 41.418 27.4609 41.8428C28.0347 41.3554 28.3018 41.306 28.6942 41.665C28.8822 41.8395 29.0504 42.0503 29.1856 42.271C29.3373 42.5213 29.3736 42.7519 28.9844 42.8639C28.7074 42.9462 28.6514 43.2591 28.8723 43.4337C29.2021 43.6906 29.5319 44.0233 29.9144 44.1221C30.3695 44.2406 30.597 44.5338 30.7982 44.8599C31.1906 45.5021 31.5369 46.1707 31.8832 46.8361C31.9326 46.9349 31.9062 47.0996 31.8634 47.2148C31.7381 47.5607 31.8535 47.7912 32.0744 48.0844C32.5691 48.7398 32.9813 49.4611 33.4265 50.1528C33.3935 50.1825 33.3573 50.2121 33.3243 50.2417L33.0934 50.5777L32.48 50.4723C32.4636 50.5085 32.4965 50.4361 32.48 50.4723C31.8634 50.2121 31.2005 50.0408 30.6069 49.7312C30.0232 49.4249 29.4857 49.0264 28.8855 48.641C28.8525 48.8551 28.8328 48.9835 28.8064 49.168C28.0578 48.7859 27.3257 48.4467 26.6332 48.0448C26.0758 47.7221 25.535 47.3565 25.0371 46.9448C24.6413 46.6154 24.328 46.1872 23.9653 45.815C23.6289 45.4725 23.5498 45.4955 23.3552 45.9204C22.7319 45.5153 22.1054 45.1069 21.4755 44.7083C21.3733 44.6425 21.2414 44.6293 21.1358 44.57C21.0072 44.4975 20.8555 44.4251 20.7731 44.3131C20.3378 43.7169 19.9256 43.1076 19.4903 42.5115C19.4111 42.4061 19.2363 42.2743 19.144 42.3007C19.0385 42.3303 18.9428 42.5115 18.9099 42.6432C18.8571 42.8606 18.8604 43.0911 18.8406 43.3118C18.2569 43.3316 17.7029 42.9726 17.5017 42.4423C17.3039 41.9219 16.9477 41.5793 16.4431 41.3455C16.1299 41.2006 15.8529 40.9733 15.5561 40.7856C15.4604 40.7263 15.3648 40.6703 15.2329 40.5912C15.0119 41.3224 15.2164 41.9252 15.5066 42.5642C15.101 42.3665 14.6129 42.1788 14.448 41.8363C14.1875 41.2895 14.0556 40.835 13.3927 41.3883C13.3762 41.4048 13.3334 41.3949 13.3037 41.3883C12.9706 41.3257 12.8618 41.5135 12.8816 41.7901C11.7703 41.5596 10.6952 41.5168 9.60693 41.6979C9.68608 41.8461 9.78171 41.9153 9.87405 41.9878C10.5204 42.518 11.2789 42.9232 11.7109 43.6972C11.8065 43.8685 12.0637 43.9607 12.2616 44.0628C12.4694 44.1682 12.6969 44.2406 13.0399 44.3757L12.4694 44.5865C12.9146 45.4231 13.6664 44.8895 14.2106 45.018C13.9468 45.344 13.6829 45.6668 13.4257 45.9896C13.1817 46.2926 13.2344 46.4639 13.617 46.5561C14.0655 46.6681 14.4711 46.6417 14.8833 46.3519C15.6319 45.8315 16.4959 45.8315 17.1324 46.2827C17.0961 46.3486 17.0334 46.4112 17.0268 46.4803C17.0005 46.7867 16.5289 47.0304 16.8916 47.3861C17.2445 47.732 17.6072 47.4915 17.9634 47.3729C18.0063 47.3598 18.0458 47.3301 18.0854 47.3071C18.6427 46.9612 19.1935 47.0337 19.7541 47.3071C20.1828 47.5146 20.628 47.6825 21.0567 47.89C21.3205 48.0185 21.5678 48.1898 21.9207 48.4006C21.7294 48.4467 21.6734 48.4566 21.6206 48.473C21.4755 48.5224 21.3304 48.5718 21.1853 48.6212C21.2974 48.7332 21.3931 48.9078 21.525 48.9473C21.8976 49.0527 22.2867 49.112 22.6693 49.168C22.9859 49.2141 23.3585 49.056 23.563 49.4611C23.5893 49.5105 23.7344 49.4875 23.8169 49.5237C23.9653 49.5896 24.1005 49.6785 24.2456 49.7477C24.427 49.8333 24.6051 49.9321 24.7963 49.9782C25.1789 50.0705 25.5713 50.1166 25.9571 50.2055C26.2341 50.2714 26.5045 50.3735 26.7783 50.4657C27.3257 50.6469 27.9621 50.6337 28.2523 51.3188C28.4304 51.7437 28.8723 51.8985 29.123 51.6877C29.8089 51.1212 30.4981 51.4242 31.2698 51.5856C31.0653 51.7305 30.9268 51.8293 30.7916 51.9248C30.3629 52.2245 29.9672 52.5901 29.5022 52.8108C28.9119 53.0908 28.2589 53.2423 27.6423 53.4761C27.4741 53.542 27.3455 53.7133 27.2004 53.8352C27.362 53.9834 27.5005 54.1678 27.6884 54.2633C27.85 54.3457 28.0644 54.3292 28.381 54.3753C27.9193 54.9649 27.5301 55.4952 27.0981 55.9892C26.9827 56.121 26.7387 56.1901 26.554 56.1934C25.7296 56.2033 25.2184 56.6381 24.8491 57.333C24.9777 57.4483 25.0766 57.5405 25.1822 57.6295C25.6636 58.0412 25.7428 58.2553 25.4987 58.8317C25.3273 59.2401 25.1063 59.6353 24.8491 59.9943C24.7403 60.1459 24.4929 60.2249 24.2951 60.2776C23.8532 60.3995 23.3981 60.4851 22.8276 60.6136C23.0782 60.8474 23.2101 60.989 23.3618 61.1109C23.6586 61.3546 23.9719 61.5786 24.2687 61.8223C24.5721 62.0727 24.8161 62.4152 24.6215 62.7841C24.4105 63.1793 24.3511 63.7459 23.7476 63.8348C23.4607 63.8776 23.22 63.983 23.1969 64.3453C23.464 64.4672 23.7081 64.589 23.9653 64.6911C24.3313 64.8328 24.3676 64.9612 24.15 65.2873C23.9554 65.5771 23.7443 65.8703 23.6223 66.1931C23.3948 66.7958 23.2266 67.4183 23.0419 68.0375C23.0089 68.1429 23.0056 68.2582 22.9892 68.3603C23.0551 68.3801 23.0749 68.3932 23.0815 68.3867C23.6025 68.0342 24.1203 67.6818 24.638 67.3294C25.0371 67.056 25.4031 66.7892 25.6537 66.3248C25.8252 66.0086 26.188 65.7188 26.6661 65.7649C26.798 65.7781 26.9431 65.6694 27.0784 65.6068C27.2432 65.5277 27.3916 65.4125 27.5631 65.3532C28.0248 65.1918 28.1699 64.9019 27.8863 64.4836C27.6522 64.1345 27.794 63.9303 27.9885 63.7129C28.2853 63.8677 28.5393 64.0258 28.8163 64.1378C29.0702 64.2399 29.2285 64.0719 29.212 63.8447C29.1823 63.3638 29.0966 62.8895 29.0372 62.4119C28.9581 61.7466 28.8591 61.0813 28.8163 60.4126C28.8031 60.2216 28.9383 60.0075 29.0504 59.833C29.0867 59.7737 29.2911 59.7407 29.3571 59.7836C29.6935 60.0141 30.0001 60.2908 30.3398 60.518C30.4618 60.6004 30.663 60.6564 30.7916 60.6169C30.8872 60.5872 30.9631 60.383 30.9763 60.248C30.9928 60.0866 30.9631 59.9054 30.907 59.7539C30.5047 58.6703 30.3365 57.5735 30.696 56.4438C30.7191 56.3713 30.7125 56.2922 30.7257 56.2165C30.7949 55.8509 30.8675 55.482 30.9433 55.0933C31.4479 55.3338 31.4578 55.3041 31.5864 54.8463C31.7611 54.2238 31.9062 53.5749 32.1997 53.0051C32.579 52.2739 33.2056 51.7404 33.9442 51.3418C34.1751 51.2167 34.3037 51.2397 34.4488 51.4242C35.0391 52.1883 35.9097 52.712 36.345 53.6112C36.3978 53.7166 36.4868 53.8088 36.5692 53.8977C36.589 53.9208 36.6517 53.9043 36.7078 53.9076C36.7374 53.7792 36.7671 53.6606 36.7902 53.5684C37.8587 53.9768 37.7828 55.1856 38.4753 55.9859C38.5644 55.6829 38.6171 55.5083 38.6831 55.2778C39.2107 55.8937 39.2932 56.7534 40.0385 57.2211C40.0747 57.0498 40.1341 56.918 40.1209 56.7929C40.078 56.3318 40.3616 56.2132 40.6848 56.368C41.1465 56.5854 41.562 56.9049 41.9907 57.1914C42.1127 57.2738 42.215 57.3923 42.3238 57.4944C42.3634 57.4648 42.4062 57.4352 42.4458 57.4055C42.37 57.198 42.2809 56.9938 42.2183 56.7797C42.1325 56.503 41.9578 56.1967 42.0171 55.9464C42.1391 55.4128 41.938 55.1032 41.5422 54.8134C41.1498 54.5268 41.1729 54.3259 41.5785 54.0492C41.6379 54.0097 41.6807 53.9471 41.7434 53.8846C41.351 53.4201 40.8629 53.2785 40.2693 53.3609C40.3485 53.1731 40.4045 53.0381 40.4804 52.8536C39.9593 52.6824 39.5603 52.185 38.9733 52.3958C38.538 52.5539 38.3434 52.3299 38.2676 52.0137C38.1752 51.6218 37.918 51.6481 37.6476 51.6514C37.4827 51.6514 37.3178 51.6975 37.2123 51.714C36.9782 51.0388 36.3681 51.2002 35.9163 51.0289C36.2098 51.0158 36.4934 51.0816 36.7737 51.0783C36.9485 51.0783 37.1299 50.9894 37.2915 50.9071C37.453 50.828 37.5784 50.6765 37.7432 50.6139C38.627 50.2714 39.4317 50.5415 40.2165 50.9235C40.4144 50.8577 40.6189 50.805 40.7706 50.8741C41.2751 51.1014 41.7467 51.3912 42.2545 51.6086C42.4425 51.691 42.6898 51.6317 42.9108 51.6383C42.8976 51.411 42.8877 51.1837 42.8646 50.9565C42.858 50.8906 42.8053 50.8247 42.7558 50.716C43.877 50.3834 44.774 50.8511 45.6248 51.4077C45.9909 51.6481 46.2679 52.0302 46.7757 52.0006C46.9769 51.9874 47.1781 52.0104 47.3792 52.017C47.3627 51.826 47.3726 51.6251 47.3265 51.4439C47.211 50.9894 47.3627 50.8115 47.8277 50.9235C47.9695 50.9598 48.0882 51.0915 48.23 51.131C48.6357 51.2463 49.0446 51.3484 49.4568 51.4242C49.5393 51.4406 49.7041 51.3254 49.7338 51.2364C49.7602 51.164 49.658 51.0289 49.5854 50.9466C49.5063 50.8577 49.3612 50.8148 49.3051 50.716C49.2622 50.6403 49.2754 50.4492 49.3282 50.4163C49.5491 50.2878 49.8031 50.222 50.024 50.0968C50.3076 49.9354 50.6011 49.7707 50.832 49.5468C51.0364 49.3491 51.165 49.0692 51.3167 48.8189C51.4223 48.6476 51.5113 48.4697 51.6069 48.2919C51.3893 48.2359 51.1749 48.1766 50.9573 48.1272C50.8847 48.1107 50.8023 48.1206 50.7264 48.1338C50.0966 48.2524 49.4106 48.2227 48.9193 47.8933C48.4312 47.5673 48.2861 47.9197 48.0025 48.0646C47.8706 48.1305 47.6694 48.2524 47.5903 48.2029C47.2869 48.0086 47.0198 47.7583 46.7362 47.5277C46.7428 47.4553 46.7494 47.3828 46.7527 47.3104C46.3602 47.5212 45.8755 47.6496 45.5886 47.9592C45.0082 48.5916 44.309 48.394 43.6066 48.4599C43.7517 48.1008 43.8803 47.7814 44.0353 47.3894C43.8177 47.4125 43.722 47.4059 43.6396 47.4355C42.7888 47.7451 41.8951 47.7023 41.0146 47.7484C40.9091 47.755 40.7442 47.8044 40.7046 47.755C40.4177 47.4026 40.1836 47.6661 39.956 47.8077C39.6823 47.979 39.4548 48.2425 39.1646 48.361C38.5809 48.6015 37.9741 48.7859 37.3673 48.9638C37.2222 49.0066 37.0441 48.9276 36.8792 48.9045C36.8792 48.8551 36.8726 48.8057 36.8693 48.7596C37.0606 48.641 37.2618 48.5356 37.4431 48.3973C37.9543 48.0086 38.4654 47.62 38.9502 47.1984C39.0656 47.0963 39.1217 46.869 39.1118 46.7043C39.1085 46.6319 38.8744 46.5693 38.7458 46.5067C39.0096 46.2234 39.3295 45.9501 39.5537 45.6141C39.8769 45.1332 40.1242 44.6029 40.4078 44.0924C40.6156 43.7169 40.8629 43.3579 41.0344 42.966C41.252 42.4752 41.5356 42.0701 41.9973 41.7671C42.2677 41.5892 42.4524 41.2829 42.7624 40.9371C42.3766 40.8745 42.1556 40.8416 41.9545 40.8086C41.7104 40.2092 42.1062 39.7579 42.3205 39.2573C42.6338 38.5195 42.9603 37.8048 43.5736 37.2383C43.8803 36.955 44.0782 36.5499 44.3255 36.2008C44.2794 36.1415 44.2299 36.0789 44.1837 36.0196C43.7484 36.2337 43.3131 36.4445 42.7327 36.7277C42.802 36.2897 42.8349 35.9307 42.9174 35.5848C42.98 35.318 43.0724 35.0447 43.2076 34.8075C43.5374 34.2344 43.8144 33.6416 44.5432 33.3912C44.8565 33.2825 45.0972 32.9005 45.3148 32.6008C45.5127 32.3274 45.6314 32.0013 45.8029 31.6588C45.1796 31.224 44.5564 31.7576 43.8836 31.8531C43.9034 31.751 43.9067 31.6884 43.9298 31.6357C44.2431 30.8617 44.5696 30.0943 44.8631 29.3169C44.9191 29.1621 44.896 28.9415 44.8301 28.7867C44.5234 28.0423 44.4607 27.2683 44.5003 26.4778C44.5069 26.3427 44.4706 26.2077 44.4344 25.9409V25.9706Z" fill="white"/>
</g>
</g>
<defs>
<clipPath id="clip0_585_202">
<rect width="60" height="79.2" fill="white"/>
</clipPath>
<clipPath id="clip1_585_202">
<rect width="42" height="57.6" fill="white" transform="translate(9.6001 10.7998)"/>
</clipPath>
</defs>
</svg>
