<?xml version="1.0" encoding="UTF-8"?>
<svg xmlns="http://www.w3.org/2000/svg" version="1.1" viewBox="0 0 218.15 284.99">
  <defs>
    <style>
      .cls-1 {
        fill: #efeeeb;
      }
    </style>
  </defs>
  <!-- Generator: Adobe Illustrator 28.7.1, SVG Export Plug-In . SVG Version: 1.2.0 Build 142)  -->
  <g>
    <g id="_레이어_1" data-name="레이어_1">
      <g>
        <ellipse cx="109.07" cy="142.49" rx="109.07" ry="142.49"/>
        <g>
          <path class="cls-1" d="M104.97,53.37s.02,0,.03,0c0-.01,0-.03,0-.04l-.04.05Z"/>
          <path class="cls-1" d="M72.95,71.97c.52-.88.96-1.61,1.39-2.34-.49-.45-.98-.9-1.47-1.35-1.57,1.79-3.14,3.58-4.7,5.38.26.28.51.55.77.83.6-.12,1.19-.23,1.59-.31.42,1.31.78,2.43,1.14,3.55.18-.06.37-.12.55-.19.12-1.03.24-2.06.31-2.73,5.18-.46,10.07-.89,14.96-1.33,0-.25,0-.5,0-.75h-9.43c-.05-.38-.09-.77-.14-1.15,1.38-.51,2.76-1.02,3.68-1.35-.95-1.11-1.84-2.15-2.73-3.19-.73,1.41-1.5,2.8-2.17,4.24-.93,1.99-2.16,1.73-3.73.68Z"/>
          <path class="cls-1" d="M101.45,42.93c2.08.69,4.59.03,3.48,3.16,2.2-.49,4.36-.97,6.45-1.43-.63-.67-1.45-1.54-1.87-1.99-1.81-.12-4.17.18-4.39-.36-1.07-2.72-2.33-1.11-3.66-.55-.87.37-1.82.54-2.74.81-.83.24-1.66.48-2.48.71,2.33.98,4.36,1.84,6.5,2.74-.35-.84-.71-1.72-1.28-3.09Z"/>
          <path class="cls-1" d="M104.96,53.37s.04-.05.04-.05c-.04,0-.07,0-.11.01.02.01.05.02.07.04Z"/>
          <path class="cls-1" d="M102.74,47.63c-.29-.09-.58-.18-.87-.28-2.67,2.69-3.98,5.8-2.98,10.23.59-1.25.96-2.02,1.34-2.83,1.02.76,1.84,1.37,2.65,1.97.11-.11.23-.22.34-.33-.44-.87-.88-1.74-1.39-2.76,1.2-.12,2.14-.21,3.07-.3-1.33-.69-2.65-1.38-3.47-1.81.47-1.4.9-2.65,1.32-3.9Z"/>
          <path class="cls-1" d="M93.51,81.46c-2.7,2.01-5.4,4.02-8.1,6.03.05.28.1.55.15.83,4.08-3.15,3.63,3.08,6.64,2.62-.66-1.12-1.26-2.14-1.96-3.33,1.24-.36,2.17-.63,3.84-1.11-1.56-.44-2.33-.66-3.05-.87,1.03-1.29,2.01-2.51,2.99-3.73-.17-.15-.34-.29-.51-.44Z"/>
          <path class="cls-1" d="M107.72,54.85c2.28.64,4.56,1.28,6.58,1.85-.38-1.97-.71-3.69-1.13-5.9-.48,1.17-.75,1.84-1.03,2.52-.19-.04-.39-.08-.58-.11.19-1.02.37-2.05.71-3.92-2,2.45-3.43,4.2-4.54,5.57Z"/>
          <path class="cls-1" d="M74.1,79.89c1.24,1.14,2.14,1.97,3.19,2.93-.1-1.31-.18-2.42-.26-3.4h4.95c-2.59-1.38-4.4-2.35-6.37-3.41-.52,1.33-1.1,2.82-1.51,3.87Z"/>
          <path class="cls-1" d="M76.55,57.23c.93.53,1.7.96,2.47,1.4-1.86-2.94.57-3.59,2.08-4.97-1.13.09-2.26.18-3.61.28.07-.77.14-1.5.21-2.23-.33-.05-.66-.1-.99-.16-.71,2.54-1.42,5.08-2.12,7.62.31.09.62.19.93.28.34-.74.68-1.48,1.03-2.23Z"/>
          <path class="cls-1" d="M126.13,75.66c-.68-.87-1.8-2.29-2.84-3.61-1,1.55-2.17,3.37-3.48,5.41,1.01-.27,1.84-.48,2.9-.76-.14,1.32-.25,2.31-.38,3.53,1.39-1.67,2.59-3.11,3.81-4.57Z"/>
          <path class="cls-1" d="M92.56,67.24c-3.41-1.6-6.13-2.88-8.86-4.15-.33.3-.66.59-1,.89,5.55.93.98,5.23,3.03,7.41.5-1.36.94-2.56,1.38-3.75.06.03.11.05.17.08-.04-.03-.07-.06-.11-.09,1.51-.1,3.04-.21,5.38-.37Z"/>
          <path class="cls-1" d="M92.69,43.64c.99-.61,1.78-1.09,2.57-1.57-.04-.15-.09-.29-.13-.44-2.14.18-4.28.36-6.15.52-.08,1.02-.17,2.05-.23,2.76,1.8.38,3.58.75,5.87,1.23-.74-.97-1.3-1.69-1.93-2.51Z"/>
          <path class="cls-1" d="M84.06,47.44c1.88.17,3.69.33,6.15.55-1.83-1.5-3.12-2.56-4.57-3.75-.99,1.79-4.82,2.48-2.54,6.6.38-1.36.63-2.23.96-3.4Z"/>
          <path class="cls-1" d="M96.75,92.37c.9.71,1.64,1.3,2.32,1.83-.2-1.84-.37-3.45-.52-4.83h-4.17c.35,1.69.7,3.39,1.16,5.62.55-1.21.86-1.87,1.2-2.62Z"/>
          <path class="cls-1" d="M119.84,54.04c2.81-2.48,2.48,1.4,4.35,1.88-.53-1.95-1-3.67-1.51-5.56-2.01.39-4.42-.28-5.86,2.16.71-.22,1.42-.44,2.5-.77.2.85.34,1.49.53,2.29Z"/>
          <path class="cls-1" d="M116.97,66.17c.64-.17,1.56-.41,2.33-.61-.29-1.6-.62-3.41-.89-4.94-1.22.43-2.6.91-3.64,1.27.74,1.43,1.52,2.94,2.21,4.28Z"/>
          <path class="cls-1" d="M97.35,48.71c-1.88.09-3.75.19-5.66.28.21,1.43.41,2.7.52,3.44,1.48-.08,2.75-.14,4.07-.21-.28-.66-.56-1.31-.82-1.93.8-.41,1.41-.73,2.03-1.04-.04-.18-.09-.36-.13-.54Z"/>
          <path class="cls-1" d="M118.13,84.8c1.58-.42,2.96-.8,4.33-1.16-.46-.68-1.05-1.23-1.22-1.89-.17-.66.07-1.43.16-2.46-2.13,2.31-2.17,2.34-5.02.26.68,1.13,1.36,2.27,2.27,3.78-.06.18-.31.91-.51,1.48Z"/>
          <path class="cls-1" d="M82.25,90.01c.17-2.1.34-4.2.5-6.25-1.46.68-3.13,1.47-4.82,2.26,1.49,1.38,3.09,2.85,4.32,3.99Z"/>
          <path class="cls-1" d="M89.42,80.86c-1.57-1.17-3.14-2.34-4.72-3.51-1.25,2.87-.36,5.51,2.27,6.46-.45-1.05-.86-2.02-1.47-3.46,1.62.43,2.66.7,3.69.97.07-.16.15-.31.22-.47Z"/>
          <path class="cls-1" d="M114.43,49.85c.02-.33.06-.89.12-1.64,1.03.23,1.8.4,2.17.48-.85-.75-1.86-1.65-3.03-2.69-.8.51-2.32,1.48-3.58,2.28,1.6.58,2.95,1.07,4.32,1.57Z"/>
          <path class="cls-1" d="M81.83,75.56c.05.33.11.66.16.99,3.5-.53,7-1.07,10.5-1.6-.06-.37-.12-.74-.18-1.1-3.49.57-6.99,1.14-10.48,1.71Z"/>
          <path class="cls-1" d="M123.34,62.84h0s0,0,0,0l.04.04c-.47-.05-.95-.09-1.88-.19.94,1.01,1.52,1.63,2.19,2.35-.9.54-1.66,1-2.42,1.45,1.7.31,3.34.31,2.97,2.01,1.29.06,2.41.11,3.83.18-.48-.95-.97-1.94-1.47-2.93.46-.85.92-1.7.97-1.8-1.49-.39-2.83-.74-4.18-1.1.02-.05.03-.1.04-.16-.03.05-.06.1-.09.14Z"/>
          <path class="cls-1" d="M120.88,56.55c-.21.24-.42.48-.62.72,2.27,1.24,3.97,2.74,3.19,5.43.81-1.23,1.62-2.47,2.42-3.68-1.18-.59-3.08-1.53-4.98-2.47Z"/>
          <path class="cls-1" d="M180.87,172.67c-.26-.06-.55-.02-.81.03-2.23.42-4.64.31-6.37-.85-1.72-1.15-2.23.09-3.24.6-.47.24-1.18.66-1.45.49-1.07-.68-2.02-1.57-3.01-2.38.02-.26.04-.51.06-.77-1.39.74-3.1,1.2-4.1,2.29-2.04,2.23-4.52,1.53-6.99,1.77.51-1.27.96-2.4,1.51-3.78-.77.08-1.1.06-1.39.16-3,1.1-6.15.94-9.26,1.1-.37.02-.95.2-1.09.02-1.01-1.25-1.84-.32-2.65.19-.96.61-1.77,1.53-2.79,1.96-2.06.85-4.2,1.5-6.34,2.13-.51.15-1.14-.13-1.72-.2-.01-.17-.02-.34-.03-.52.68-.42,1.39-.79,2.02-1.27,1.8-1.38,3.61-2.75,5.32-4.23.41-.36.61-1.16.57-1.75-.01-.26-.84-.47-1.29-.7.93-1,2.06-1.97,2.85-3.15,1.13-1.7,2.02-3.58,3.02-5.37.74-1.33,1.6-2.6,2.21-3.98.77-1.74,1.77-3.16,3.4-4.23.96-.63,1.61-1.71,2.7-2.93-1.36-.22-2.14-.34-2.84-.45-.87-2.11.54-3.71,1.29-5.48,1.1-2.61,2.26-5.13,4.42-7.13,1.09-1,1.78-2.43,2.65-3.67-.17-.21-.33-.43-.5-.64-1.54.75-3.07,1.5-5.12,2.51.24-1.55.36-2.81.65-4.04.22-.94.54-1.91,1.02-2.74,1.16-2.02,2.14-4.12,4.71-5,1.1-.38,1.96-1.73,2.72-2.79.69-.96,1.11-2.12,1.72-3.32-2.2-1.53-4.4.35-6.78.69.07-.37.08-.58.16-.76,1.1-2.73,2.25-5.44,3.29-8.19.2-.54.11-1.32-.12-1.88-1.08-2.63-1.31-5.36-1.16-8.16.02-.47-.11-.95-.23-1.89-.58.81-.9,1.17-1.12,1.59-.79,1.51-2.05,2.41-3.69,2.67-1.61.25-2.45,1.19-2.99,2.63-.23.62-.63,1.54-1.11,1.65-1.91.47-2.19,2.01-2.72,3.48-.28.78-.73,1.51-1.12,2.25-.48.91-1.07,1.77-1.43,2.72-.33.87-.41,1.83-.57,2.58-3.15-.57-2.39-3.86-4.29-5.46-.16.51-.31.84-.37,1.19-.31,1.87-.6,3.74-.88,5.61-.05.31-.03.66.06.96.69,2.27,1.38,4.55,2.11,6.81,1.08,3.38-.57,6.53-.36,10.18-1.51-1.09-2.02-3.2-4.21-1.86.21,1.04.49,2.13.66,3.24.43,2.75.95,5.5,1.15,8.27.14,1.97-.71,2.6-2.83,2.61.21.97.51,1.9.61,2.85.25,2.41.94,4.93.49,7.21-.58,2.92-2.12,5.65-3.26,8.51-.44-.35-.79-.62-1.35-1.05-.6,2.36-1.88,5.29-2.68,7.52-.45,1.1-1.24,2.41-1.82,3.72-1.03-49.17-12.76-77.87-15.92-84.76-.02-.4-.03-.78.01-.78l2.62-5.3c.59.14,1.12.27,1.65.4v-8.43c.32,1.31.49,2.3.83,3.23.13.36.64.57.97.85l-.04.04s.07.05.11.08c-.02-.04-.04-.07-.07-.11.75-.57,1.5-1.13,2.45-1.86-1.06-1.4-2.27-3.42,1.76-4.22-2.85-.75-5.7-1.51-8.55-2.26-.1.26-.19.52-.29.78,1.65.73,3.3,1.47,4.95,2.2-.19.36-.39.71-.58,1.07-2.35-1.24-4.7-2.48-7.05-3.72.1-.41.2-.81.3-1.22,3.53-.58,7.05-1.17,10.58-1.75-.06-.34-.11-.68-.17-1.02-2.86.36-5.72.71-9.22,1.15,2.05-1.48,3.57-2.57,5.08-3.66-.13-.19-.27-.38-.4-.57-1.29.73-2.59,1.46-3.87,2.18-1.46-2.3-2.75-4.4,1.57-5.33-.25-.27-.51-.54-.76-.81-2.1.67-4.21,1.33-6.91,2.19.39-3.02.74-5.23.92-7.46.06-.69.84-2.23-1.11-1.74-.3,3.3-.59,6.6-.91,10.08,2.75-.16,4.89.46,5.5,3.14.14.6-.65,1.41-1.01,2.12-.27-.09-.53-.17-.79-.26v-2.77c-1.5.24-2.99.7-4.48.68-1.48-.02-2.95-.51-4.35-.78.06.55.15,1.46.25,2.4-3.02-.16-3.63-1.14-2.83-4.45.22,1.11.41,2.02.59,2.93.34.43.69.86,1.03,1.29-1.24-7.58,4.05-1.23,5.12-4.26-.42-1.91-.87-4.01-1.33-6.1-.27.05-.55.11-.83.16.21,1.76.43,3.52.64,5.28-.27.06-.54.11-.81.17-.29-.97-.59-1.95-.94-3.11-.58.67-1.01,1.33-1.6,1.8-1.46,1.18-4.67.67-5.18-1.03-.2-.67,1.08-1.79,1.8-2.88-.61-.18-1.48-.44-2.41-.72v-2.94c-.87,1.41-1.36,2.22-2.01,3.27-1.22-1.68-2.32-3.18-3.89-5.33,1.5.45,2.4.71,4.28,1.27-1.56-1.99-2.6-3.32-3.38-4.32-1.06,1.52-1.77,2.88-2.81,3.93-1.78,1.79-1.43,3.42-.09,5.16.18-1.27.36-2.55.67-4.67,1.25,1.6,1.79,2.42,2.46,3.11.66.69,1.44,1.25,1.94,1.68-.44,1.59-.8,2.88-1.15,4.16-2.44-1.68-4.88-3.36-6.56-4.52-1.66,1.53-2.92,2.68-4.18,3.83.25-.07.5-.15.76-.22.29,1.27.59,2.53,1.05,4.5-2.05-.74-3.3-1.19-4.55-1.64.32-.89.65-1.78.88-2.42h-4.8c-.22,1.67-.47,3.48-.71,5.29.18.02.35.04.53.07.43-.82.87-1.64,1.13-2.14,2.45.69,4.62,1.3,6.79,1.91,0,0,0,.01.02.02,0,0,0,0,0-.01l-.02-.02-.02-.02c1.62.26,3.25.52,4.87.78-.29-.82-.8-.93-1.09-1.25-.71-.77-1.74-1.59-1.83-2.47-.06-.6,1.18-1.78,1.96-1.91,1.23-.21,2.65.05,3.86.49,1.31.47,2.48,1.37,3.7,2.09.11-.17.21-.35.32-.52-.56-.45-1.13-.91-1.69-1.36.6-.97,1.19-1.93,1.83-2.96q4.88,6.7,1.61,10.11c-1.7-.77-3.38-1.54-5.06-2.3,2.24,1.97,4.49,3.94,6.84,6v-3.36c.25-.1.5-.2.75-.3.77,1.25,2.41,2.84,2.09,3.67-.46,1.18-2.36,1.8-3.86,2.8-.05.3-.19,1.07-.36,2.01.5-.06.96-.14,1.43-.17.45-.03.9,0,1.33,0q.37,5.07,3,3.56c-.58,2.52-1.04,4.51-1.5,6.49.3.06.59.12.89.18.66-2.79,1.32-5.59,1.98-8.38.91,4.88.04,9.71,2.31,14.17.42-.44.41-.97.66-1.29.87-1.1,1.83-2.13,2.75-3.18.63.63,1.53,1.13,2.33,1.68,1.3,3.49,3.71,10.6,6.1,21.13,3.06,13.47,6.48,34.02,6.85,62.84-.71-3.54-.99-7.15-2.78-10.4-.28-.5-.31-1.15-.45-1.73-.93-3.8-2.13-7.54-2.47-11.47-.1-1.15-.07-2.46-1.29-3.33-.32.55-.57.97-.86,1.46-1.95-1.83-1.43-4.35-2.14-6.49-.58.16-1.02.29-1.67.47-.11-2.77-.21-5.39-.32-8.46-.94,1.04-1.53,1.7-2.03,2.25-.87-.65-1.66-1.19-2.37-1.81-.26-.22-.51-.68-.46-.99.44-3.16-1.6-5.69-2.17-8.6-.31-1.57-1.3-2.77-2.89-3.67-.42.99-.77,1.81-1.14,2.68-.96-1.16-1.85-2.22-2.72-3.3-.96-1.21-1.98-2.4-2.82-3.69-1.47-2.29-4.16-3.7-6.58-3.15.44,2.97.85,5.97,1.36,8.94.08.46.64.83.94,1.26.6.85,1.5,1.64,1.7,2.58.4,1.85-.1,3.92,1.59,5.4.09.08.06.31.06.47.09,2.64.16,5.27.26,7.91.04.99.11,1.99.17,3.01,1.39-1.13,2.48-2.21,3.76-3,1.43-.88,2.44-.31,3.68,1.76-2,2.73-2.48,5.25-1.28,6.76,2.03-1.73,2.97-1.9,4.35-.63.67.62,1.26,1.36,1.73,2.14.54.88.66,1.7-.71,2.1-.98.29-1.18,1.4-.39,2.01,1.17.91,2.33,2.08,3.67,2.43,1.61.41,2.41,1.45,3.12,2.61,1.38,2.26,2.61,4.63,3.82,6.99.18.35.08.93-.07,1.34-.44,1.22-.04,2.04.74,3.07,1.74,2.32,3.2,4.86,4.77,7.31-.12.11-.24.21-.37.32l-.82,1.19-2.17-.37c-2.18-.92-4.52-1.52-6.6-2.62-2.06-1.09-3.96-2.49-6.08-3.85-.11.75-.18,1.21-.28,1.86-2.64-1.35-5.22-2.55-7.67-3.97-1.97-1.14-3.88-2.44-5.63-3.88-1.4-1.16-2.5-2.68-3.78-3.99-1.19-1.21-1.47-1.13-2.15.38-2.2-1.43-4.41-2.87-6.63-4.28-.36-.23-.82-.28-1.2-.49-.46-.26-.98-.51-1.28-.91-1.54-2.1-2.99-4.26-4.53-6.36-.28-.38-.9-.84-1.22-.75-.37.1-.72.74-.83,1.21-.19.77-.18,1.59-.25,2.37-2.06.07-4.01-1.2-4.72-3.07-.7-1.84-1.96-3.04-3.73-3.87-1.11-.52-2.09-1.31-3.13-1.98-.33-.21-.68-.41-1.14-.69-.78,2.58-.06,4.71.97,6.97-1.44-.7-3.15-1.36-3.73-2.57-.92-1.93-1.38-3.54-3.72-1.58-.06.05-.21.02-.32,0-1.18-.22-1.56.44-1.49,1.42-3.93-.81-7.72-.96-11.55-.32.28.52.62.77.94,1.03,2.28,1.87,4.96,3.31,6.49,6.04.34.61,1.24.94,1.94,1.29.73.37,1.53.63,2.75,1.11-.99.37-1.47.54-2.02.75,1.57,2.96,4.23,1.07,6.14,1.52-.93,1.15-1.86,2.29-2.77,3.43-.86,1.08-.67,1.67.67,2.01,1.58.4,3.01.3,4.47-.72,2.64-1.84,5.69-1.84,7.94-.25-.13.23-.35.45-.37.69-.1,1.08-1.76,1.95-.48,3.19,1.25,1.22,2.52.37,3.78-.04.15-.05.29-.15.43-.24,1.96-1.22,3.9-.97,5.88-.01,1.51.73,3.08,1.33,4.59,2.06.93.45,1.8,1.05,3.04,1.8-.67.16-.87.2-1.06.26-.51.17-1.02.35-1.53.53.4.4.73,1.01,1.2,1.15,1.32.37,2.68.58,4.04.78,1.11.17,2.43-.39,3.16,1.04.09.18.61.1.89.22.52.23,1,.55,1.51.79.64.3,1.27.65,1.95.81,1.35.32,2.74.49,4.09.8.98.23,1.93.59,2.89.92,1.93.65,4.18.59,5.2,3.02.63,1.5,2.18,2.04,3.07,1.31,2.42-2.01,4.85-.93,7.58-.36-.72.51-1.21.86-1.69,1.2-1.51,1.06-2.91,2.35-4.55,3.13-2.09.99-4.39,1.52-6.56,2.35-.59.23-1.05.83-1.56,1.27.57.52,1.06,1.17,1.72,1.51.57.3,1.33.24,2.44.4-1.63,2.08-3,3.96-4.52,5.7-.4.46-1.27.71-1.92.72-2.9.04-4.71,1.57-6.02,4.03.45.4.81.73,1.18,1.05,1.69,1.45,1.97,2.21,1.11,4.25-.61,1.44-1.38,2.84-2.29,4.11-.38.54-1.25.81-1.96,1.01-1.56.43-3.16.73-5.18,1.18.88.83,1.35,1.33,1.88,1.75,1.05.86,2.16,1.65,3.2,2.51,1.07.89,1.93,2.1,1.24,3.4-.74,1.4-.95,3.4-3.08,3.71-1.01.15-1.86.53-1.95,1.8.94.43,1.81.86,2.71,1.22,1.3.5,1.42.95.65,2.1-.69,1.02-1.43,2.06-1.86,3.2-.8,2.13-1.39,4.33-2.05,6.51-.11.37-.13.78-.18,1.14.23.07.3.11.33.09,1.83-1.24,3.67-2.49,5.49-3.74,1.41-.96,2.7-1.91,3.59-3.55.6-1.11,1.89-2.14,3.57-1.98.46.04.98-.33,1.45-.56.58-.28,1.11-.68,1.71-.89,1.63-.57,2.14-1.59,1.15-3.07-.83-1.23-.32-1.95.36-2.72,1.04.55,1.95,1.1,2.92,1.5.89.36,1.45-.23,1.4-1.03-.11-1.69-.41-3.38-.62-5.06-.28-2.35-.63-4.7-.78-7.06-.04-.67.43-1.43.82-2.05.13-.21.85-.33,1.08-.17,1.19.82,2.27,1.79,3.47,2.6.43.29,1.14.49,1.6.35.33-.1.61-.83.66-1.3.06-.57-.04-1.21-.25-1.75-1.42-3.83-2.02-7.7-.75-11.7.08-.25.06-.54.11-.81.25-1.3.5-2.59.77-3.97,1.78.84,1.82.75,2.27-.87.62-2.2,1.13-4.5,2.16-6.5,1.34-2.58,3.55-4.46,6.15-5.88.81-.44,1.27-.36,1.78.3,2.09,2.7,5.15,4.55,6.69,7.72.18.38.5.7.79,1.01.07.08.29.02.49.03.11-.46.21-.88.29-1.2,3.77,1.44,3.5,5.72,5.94,8.54.32-1.07.5-1.69.74-2.5,1.87,2.18,2.15,5.21,4.78,6.86.13-.61.33-1.07.29-1.51-.15-1.63.84-2.04,1.99-1.5,1.63.77,3.1,1.9,4.61,2.91.44.29.79.71,1.18,1.07.14-.1.29-.21.43-.31-.27-.73-.58-1.46-.81-2.21-.3-.98-.92-2.06-.72-2.94.44-1.88-.27-2.98-1.68-4-1.39-1.01-1.31-1.72.12-2.7.21-.14.36-.36.58-.58-1.39-1.64-3.1-2.15-5.2-1.85.28-.66.48-1.14.75-1.8-1.84-.6-3.25-2.36-5.32-1.61-1.54.56-2.23-.23-2.49-1.35-.32-1.38-1.23-1.29-2.19-1.28-.59.01-1.17.16-1.53.22-.82-2.39-2.98-1.82-4.57-2.42,1.04-.05,2.03.18,3.03.17.61,0,1.25-.32,1.83-.6.56-.28,1.02-.82,1.59-1.04,3.12-1.21,5.95-.26,8.73,1.09.69-.23,1.42-.42,1.96-.18,1.78.8,3.45,1.83,5.23,2.6.66.29,1.54.08,2.32.1-.05-.8-.08-1.61-.16-2.41-.02-.24-.2-.46-.39-.85,3.96-1.17,7.11.47,10.12,2.44,1.3.85,2.27,2.2,4.06,2.09.71-.04,1.42.04,2.13.06-.06-.68-.02-1.38-.18-2.03-.41-1.6.13-2.23,1.77-1.83.5.12.92.59,1.42.73,1.43.4,2.87.77,4.33,1.03.3.05.87-.35.98-.66.09-.26-.27-.74-.53-1.03-.28-.32-.8-.47-.99-.81-.15-.27-.1-.95.08-1.05.78-.45,1.68-.68,2.46-1.13,1-.57,2.04-1.15,2.86-1.95.72-.7,1.17-1.69,1.71-2.57.37-.6.68-1.24,1.02-1.86-.76-.2-1.52-.41-2.29-.58ZM108.52,73.74c.25,1.12.47,2.15.71,3.21-.7-.56-1.38-1.1-2.69-2.15.45-.45,1.12-.79,1.98-1.06ZM100.62,74.96c-.57-1.19-.94-1.97-1.42-2.98.18-.05.66-.18,1.41-.39-.23-.59-.46-1.2-.7-1.81,1.08.24,1.97.43,2.97.65v2.15c1.22-.35,2.42-.69,3.61-1.03.15.49.3.99.45,1.48-2.1.64-4.21,1.29-6.32,1.93ZM103.71,86.56c.29-2.02.54-3.71.91-6.26.77,2.68,2.73,4.64-.91,6.26ZM106.36,75c.87,4.09,1.58,7.42,2.29,10.75-.13.03-.25.05-.38.08-.63-2.45-1.01-5-1.96-7.31-.66-1.61-.61-2.72.04-3.51Z"/>
        </g>
      </g>
    </g>
  </g>
</svg>